<?xml version="1.0" encoding="utf-8"?>
<!-- Generator: Adobe Illustrator 19.0.0, SVG Export Plug-In . SVG Version: 6.00 Build 0)  -->
<svg version="1.1" id="Layer_1" xmlns="http://www.w3.org/2000/svg" xmlns:xlink="http://www.w3.org/1999/xlink" x="0px" y="0px"
	 viewBox="0 0 841.9 595.3" style="enable-background:new 0 0 841.9 595.3;" xml:space="preserve">
<style type="text/css">
	.st0{fill-rule:evenodd;clip-rule:evenodd;fill:#3F1E45;}
	.st1{fill:#3F1E45;}
</style>
<g>
	<g>
		<path class="st0" d="M250.4,287.4c0,18.1,14.9,32.8,33.3,32.8c9.8,0,18.7-4.2,24.8-10.9H322c-7.6,13.1-22,21.9-38.4,21.9
			c-24.5,0-44.3-19.6-44.3-43.7c0-24.2,19.8-43.7,44.3-43.7c24.5,0,44.3,19.6,44.3,43.7H250.4z M315.5,277.9
			c-4.1-13.5-16.8-23.3-31.8-23.3c-14.9,0-27.5,9.9-31.7,23.2L315.5,277.9z"/>
		<path class="st0" d="M155.5,287.4c0,18.1,14.9,32.8,33.3,32.8c9.9,0,18.7-4.2,24.8-10.9h13.6c-7.7,13.1-22,21.9-38.4,21.9
			c-24.5,0-44.3-19.6-44.3-43.7c0-24.2,19.9-43.7,44.3-43.7c24.5,0,44.3,19.6,44.3,43.7H155.5z M220.6,277.9
			c-4.2-13.5-16.8-23.3-31.9-23.3c-14.9,0-27.5,9.9-31.7,23.2L220.6,277.9z"/>
		<path class="st0" d="M488.6,287.4c0,18.1,14.9,32.8,33.3,32.8c9.8,0,18.7-4.2,24.8-10.9h13.6c-7.7,13.1-22,21.9-38.4,21.9
			c-24.5,0-44.4-19.6-44.4-43.7c0-24.2,19.9-43.7,44.4-43.7c24.5,0,44.3,19.6,44.3,43.7H488.6z M553.6,277.9
			c-4.1-13.5-16.8-23.3-31.8-23.3c-14.9,0-27.6,9.9-31.8,23.2L553.6,277.9z"/>
		<path class="st0" d="M438.1,309.2L438.1,309.2c0,6.2,5,11.3,11.2,11.3c12.7,0,23.3-3.5,26.6-8.3l6.4,7.3
			c-6.3,6.8-18.7,11.4-32.9,11.4c-12.2,0-22.2-9.7-22.2-21.7h0l-0.1-54.4v0h-31.3v-11.1H427V200H438v43.6h0.1h17v11.1h-17l-0.1,0
			L438.1,309.2L438.1,309.2z"/>
		<path class="st0" d="M572.3,287.3c0-24.1,19.9-43.7,44.3-43.7c16.4,0,30.8,8.8,38.6,22.1h-13.6c-6.3-6.9-15.1-11.1-25-11.1
			c-18.4,0-33.2,14.7-33.2,32.8l0,0.1c0,18.1,14.9,32.8,33.2,32.8c9.8,0,18.7-4.2,24.8-10.9h13.6c-7.7,13.1-22,21.9-38.4,21.9
			C592.2,331.1,572.4,311.5,572.3,287.3L572.3,287.3z"/>
		<path class="st0" d="M353.4,383.1c5-4,10.4-8.1,15.8-12.1c20.4-15.2,41.5-30.9,41.5-50.4c0-19.5-21.1-35.1-41.4-50.3
			c-18.5-13.8-37.7-28-37.7-42.8c0-14.7,19.1-28.9,37.6-42.6c8.7-6.5,17.5-13,24.8-19.9l-14.4,0c-5.1,4.1-10.6,8.2-16,12.3
			c-20.4,15.1-41.4,30.8-41.4,50.3c0,19.6,21.1,35.3,41.5,50.5c18.5,13.7,37.6,27.9,37.6,42.6c0,14.8-19.1,29-37.7,42.8
			c-8.6,6.4-17.4,13-24.6,19.8L353.4,383.1z"/>
	</g>
	<g>
		<polygon class="st1" points="195.7,398.6 205.6,398.6 205.6,441.5 220,441.5 220,450.9 195.7,450.9 		"/>
		<path class="st1" d="M275.4,407.8l-6.9,6.6c-4.7-5-10.1-7.5-15.9-7.5c-5,0-9.2,1.7-12.6,5.1c-3.4,3.4-5.1,7.6-5.1,12.7
			c0,3.5,0.8,6.6,2.3,9.3c1.5,2.7,3.7,4.8,6.4,6.4c2.8,1.6,5.8,2.3,9.2,2.3c2.9,0,5.5-0.6,7.9-1.6c2.4-1.1,5-3,7.9-5.9l6.7,7.1
			c-3.9,3.8-7.5,6.4-10.9,7.9c-3.4,1.5-7.3,2.2-11.7,2.2c-8.1,0-14.7-2.6-19.9-7.7c-5.2-5.2-7.7-11.8-7.7-19.8
			c0-5.2,1.2-9.9,3.5-13.9c2.3-4.1,5.7-7.3,10.1-9.8c4.4-2.5,9.1-3.7,14.1-3.7c4.3,0,8.4,0.9,12.4,2.8
			C269.1,401.8,272.5,404.4,275.4,407.8"/>
		<polygon class="st1" points="304.4,398.6 313.8,398.6 336.2,433.1 336.2,398.6 346,398.6 346,450.9 336.5,450.9 314.2,416.6 
			314.2,450.9 304.4,450.9 		"/>
		<path class="st1" d="M375,411.3c3.6,0,7.1,0.9,10.2,2.7c3.2,1.8,5.7,4.3,7.5,7.4c1.8,3.1,2.7,6.5,2.7,10.1c0,3.7-0.9,7.1-2.7,10.2
			c-1.8,3.2-4.3,5.7-7.4,7.4c-3.1,1.8-6.6,2.7-10.3,2.7c-5.5,0-10.2-1.9-14.1-5.9c-3.9-3.9-5.9-8.7-5.9-14.4c0-6,2.2-11.1,6.6-15.1
			C365.5,413.1,369.9,411.3,375,411.3 M375.1,420.4c-3,0-5.5,1-7.5,3.1c-2,2.1-3,4.8-3,8c0,3.3,1,6,2.9,8.1c2,2.1,4.5,3.1,7.5,3.1
			c3,0,5.5-1,7.5-3.2c2-2.1,3-4.8,3-8.1c0-3.3-1-6-2.9-8.1C380.7,421.5,378.2,420.4,375.1,420.4"/>
		<polygon class="st1" points="399.1,412.3 409,412.3 418.7,435.1 428.4,412.3 438.3,412.3 421.8,450.9 415.5,450.9 		"/>
		<path class="st1" d="M447.6,396.4c1.7,0,3.1,0.6,4.3,1.8c1.2,1.2,1.8,2.7,1.8,4.5c0,1.7-0.6,3.2-1.8,4.4c-1.2,1.2-2.6,1.8-4.3,1.8
			c-1.7,0-3.2-0.6-4.4-1.9c-1.2-1.3-1.8-2.8-1.8-4.5c0-1.7,0.6-3.2,1.8-4.4C444.5,397,445.9,396.4,447.6,396.4 M442.8,412.3h9.6V451
			h-9.6V412.3z"/>
		<path class="st1" d="M509.9,405.8l-7.4,6.5c-2.6-3.6-5.2-5.4-7.9-5.4c-1.3,0-2.4,0.4-3.2,1.1c-0.8,0.7-1.3,1.5-1.3,2.4
			c0,0.9,0.3,1.7,0.9,2.5c0.8,1,3.2,3.3,7.3,6.7c3.8,3.2,6.1,5.2,6.9,6c2,2.1,3.5,4,4.3,5.9c0.8,1.9,1.3,3.9,1.3,6.1
			c0,4.3-1.5,7.8-4.4,10.6c-3,2.8-6.8,4.2-11.6,4.2c-3.7,0-6.9-0.9-9.7-2.8c-2.8-1.8-5.1-4.7-7.1-8.6l8.4-5.1c2.5,4.6,5.4,7,8.6,7
			c1.7,0,3.1-0.5,4.3-1.5c1.2-1,1.8-2.1,1.8-3.4c0-1.2-0.4-2.4-1.3-3.6c-0.9-1.2-2.8-3-5.8-5.4c-5.7-4.6-9.4-8.2-11-10.7
			c-1.7-2.5-2.5-5-2.5-7.6c0-3.6,1.4-6.7,4.1-9.3c2.7-2.6,6.2-3.9,10.2-3.9c2.6,0,5.1,0.6,7.5,1.8
			C504.6,400.3,507.2,402.5,509.9,405.8"/>
		<path class="st1" d="M547.6,412.3h9.6V451h-9.6v-4.1c-1.9,1.8-3.8,3.1-5.7,3.9c-1.9,0.8-3.9,1.2-6.2,1.2c-5,0-9.3-1.9-12.9-5.8
			c-3.6-3.9-5.4-8.7-5.4-14.4c0-6,1.8-10.9,5.3-14.7c3.5-3.8,7.8-5.7,12.8-5.7c2.3,0,4.5,0.4,6.5,1.3c2,0.9,3.9,2.2,5.6,3.9V412.3z
			 M537.5,420.2c-3,0-5.5,1.1-7.4,3.2c-2,2.1-3,4.8-3,8.1c0,3.3,1,6.1,3,8.2c2,2.1,4.5,3.2,7.4,3.2c3,0,5.6-1.1,7.5-3.2
			c2-2.1,3-4.9,3-8.3c0-3.4-1-6.1-3-8.2C543.1,421.3,540.5,420.2,537.5,420.2"/>
		<path class="st1" d="M595.5,397.4h9.6V451h-9.6v-4.1c-1.9,1.8-3.8,3.1-5.7,3.9c-1.9,0.8-3.9,1.2-6.2,1.2c-5,0-9.3-1.9-12.9-5.8
			c-3.7-3.9-5.5-8.7-5.5-14.4c0-6,1.8-10.9,5.3-14.7c3.5-3.8,7.8-5.7,12.8-5.7c2.3,0,4.5,0.4,6.5,1.3c2,0.9,3.9,2.2,5.6,3.9V397.4z
			 M585.3,420.2c-3,0-5.5,1.1-7.4,3.2c-2,2.1-2.9,4.8-2.9,8.1c0,3.3,1,6.1,3,8.2c2,2.1,4.5,3.2,7.4,3.2c3,0,5.5-1.1,7.5-3.2
			c2-2.1,3-4.9,3-8.3c0-3.4-1-6.1-3-8.2C590.9,421.3,588.3,420.2,585.3,420.2"/>
	</g>
</g>
</svg>
