<?xml version="1.0" encoding="utf-8"?>
<!-- Generator: Adobe Illustrator 19.0.0, SVG Export Plug-In . SVG Version: 6.00 Build 0)  -->
<svg version="1.1" xmlns="http://www.w3.org/2000/svg" xmlns:xlink="http://www.w3.org/1999/xlink" x="0px" y="0px"
	 viewBox="0 0 241.3 226" style="enable-background:new 0 0 241.3 226;" xml:space="preserve">
<style type="text/css">
	.st0{fill:#737373;}
	.st1{fill:#898989;}
	.st2{fill:#5C5C5C;}
	.st3{fill:#C18776;}
	.st4{fill:#787172;}
	.st5{fill:#FEFDFC;}
	.st6{fill:#F9FAF9;}
	.st7{fill:#F6FEFD;}
	.st8{fill:#FBFBFB;}
	.st9{fill:#929292;}
	.st10{fill:#918992;}
	.st11{fill:#F6FEF9;}
	.st12{fill:#F9FEFA;}
	.st13{fill:#F2FEF8;}
	.st14{fill:#F4FDFD;}
	.st15{fill:#FDFAFA;}
	.st16{fill:#FAEEEB;}
	.st17{fill:#79707A;}
	.st18{fill:#95B8C7;}
	.st19{fill:#797071;}
	.st20{fill:#EAF5EF;}
	.st21{fill:#69C4D9;}
	.st22{fill:#777172;}
	.st23{fill:#767173;}
	.st24{fill:#777173;}
	.st25{fill:#91CADA;}
	.st26{fill:#6CC5D9;}
	.st27{fill:#6C766E;}
	.st28{fill:#6E7978;}
	.st29{fill:#707C79;}
	.st30{fill:#6C7A77;}
	.st31{fill:#95C3D2;}
	.st32{fill:#96C3D2;}
	.st33{fill:#6C7677;}
	.st34{fill:#97C1CD;}
	.st35{fill:#87C2D2;}
	.st36{fill:#A4D1E0;}
	.st37{fill:#A1CEDD;}
	.st38{fill:#6E7676;}
	.st39{fill:#666F6E;}
	.st40{fill:#697577;}
	.st41{fill:#535151;}
	.st42{fill:#515151;}
	.st43{fill:#56514B;}
	.st44{fill:#654A4A;}
	.st45{fill:#A3857D;}
	.st46{fill:#868D82;}
	.st47{fill:#868B88;}
	.st48{fill:#8F868A;}
	.st49{fill:#8C8690;}
	.st50{fill:#A8867A;}
	.st51{fill:#A28074;}
	.st52{fill:#868B84;}
	.st53{fill:#684B3A;}
	.st54{fill:#4B594C;}
	.st55{fill:#958487;}
	.st56{fill:#EB7862;}
	.st57{fill:#C48677;}
	.st58{fill:#F77461;}
	.st59{fill:#D46454;}
	.st60{fill:#F47462;}
	.st61{fill:#D07C71;}
	.st62{fill:#F3765F;}
	.st63{fill:#727470;}
	.st64{fill:#FE7469;}
	.st65{fill:#F7E8D7;}
	.st66{fill:#737374;}
	.st67{fill:#6C7772;}
	.st68{fill:#8B8986;}
	.st69{fill:#C18676;}
	.st70{fill:#F37563;}
	.st71{fill:#F1F1F1;}
	.st72{fill:#EDF3F2;}
	.st73{fill:#F6EEF1;}
	.st74{fill:#F7EDF7;}
	.st75{fill:#EEEEEE;}
	.st76{fill:#E9F4EE;}
	.st77{fill:#F3F3F3;}
	.st78{fill:#EAF4F5;}
	.st79{fill:#E8F8FE;}
	.st80{fill:#6CC4DC;}
	.st81{fill:#83BCCC;}
	.st82{fill:#95B0C0;}
	.st83{fill:#6DCAE1;}
	.st84{fill:#AECCC2;}
	.st85{fill:#647973;}
	.st86{fill:#E2F2F9;}
	.st87{fill:#76C2D9;}
	.st88{fill:#71B8CD;}
	.st89{fill:#6AC5D7;}
	.st90{fill:#95BFD1;}
	.st91{fill:#485554;}
	.st92{fill:#4C5556;}
	.st93{fill:#CC6259;}
	.st94{fill:#4E5352;}
	.st95{fill:#654C4A;}
	.st96{fill:#EF7763;}
	.st97{fill:#5F4744;}
	.st98{fill:#9B4C47;}
	.st99{fill:#FE6F5F;}
	.st100{fill:#D88272;}
	.st101{fill:#D88279;}
	.st102{fill:#C86E62;}
	.st103{fill:#E27B6E;}
	.st104{fill:#C2C2C2;}
	.st105{fill:#B2C7CF;}
	.st106{fill:#F37562;}
	.st107{fill:#FC6F65;}
	.st108{fill:#D26554;}
	.st109{fill:#F97263;}
	.st110{fill:#F86E63;}
	.st111{fill:#DA6056;}
	.st112{fill:#D16653;}
	.st113{fill:#FC7061;}
	.st114{fill:#F47366;}
	.st115{fill:#D47368;}
	.st116{fill:#F1775F;}
	.st117{fill:#F27167;}
	.st118{fill:#F5725C;}
	.st119{fill:#F9786D;}
	.st120{fill:#F0775D;}
	.st121{fill:#EB7673;}
	.st122{fill:#E36053;}
	.st123{fill:#EB7258;}
	.st124{fill:#FE6968;}
	.st125{fill:#4D5453;}
	.st126{fill:#654C47;}
	.st127{fill:#8B898C;}
	.st128{fill:#54514F;}
	.st129{fill:#664F49;}
	.st130{fill:#555052;}
	.st131{fill:#FB7063;}
	.st132{fill:#EE7862;}
	.st133{fill:#F97062;}
	.st134{fill:#EDF3F4;}
	.st135{fill:#C9BFC5;}
	.st136{fill:#F5F0EE;}
	.st137{fill:#F3F0EF;}
	.st138{fill:#F7F3F6;}
	.st139{fill:#EBEBEB;}
	.st140{fill:#F7F7F7;}
	.st141{fill:#E9E9E9;}
	.st142{fill:#FAFAFA;}
	.st143{fill:#F6F6F6;}
	.st144{fill:#E7E7E7;}
	.st145{fill:#E9F6EE;}
	.st146{fill:#FDEEFA;}
	.st147{fill:#F0F7F4;}
	.st148{fill:#71C5D3;}
	.st149{fill:#6DC5D8;}
	.st150{fill:#B4CFDF;}
	.st151{fill:#CE6752;}
	.st152{fill:#D57469;}
	.st153{fill:#D7604C;}
	.st154{fill:#E35E50;}
	.st155{fill:#FA7163;}
	.st156{fill:#D0827D;}
	.st157{fill:#C1C4BF;}
	.st158{fill:#BBC6C1;}
	.st159{fill:#C6BDC5;}
	.st160{fill:#FC7160;}
	.st161{fill:#EE775D;}
	.st162{fill:#DE5F53;}
	.st163{fill:#A7544E;}
	.st164{fill:#CB837B;}
	.st165{fill:#D67F7A;}
	.st166{fill:#C8847A;}
	.st167{fill:#584E56;}
	.st168{fill:#545250;}
	.st169{fill:#604C43;}
	.st170{fill:#5D4D4E;}
	.st171{fill:#5E4842;}
	.st172{fill:#F3765D;}
	.st173{fill:none;}
	.st174{fill:#0F5860;}
	.st175{font-family:'EkMukta-Medium';}
	.st176{font-size:24px;}
</style>
<g id="Layer_1">
</g>
<g id="Layer_2">
	<g>
		<path class="st0" d="M187.6,195.9c-0.4,0-0.7,0.1-1.1,0.1c-24.6,0-49.1,0-73.7,0c-0.3,0-0.6,0-1,0c-2.1-1.4-3.6-3.3-5.3-5.1
			c-0.5-0.5-0.2-0.8,0.4-1c0.8-0.1,1.6-0.1,2.3-0.1c23.3,0,46.6,0,69.9,0c0.7,0,1.4,0.1,2-0.1c0.7-0.4,0.4-1.1,0.4-1.6
			c0-20.9,0-41.8,0-62.6c0-15,0-30,0-45c0-0.8-0.2-1.6,0.3-2.3c1.9-0.6,3.8-0.6,5.7,0c0.3,0.5,0.2,1,0.2,1.5c0,38.2,0,76.3,0,114.5
			C187.8,194.7,188,195.4,187.6,195.9z"/>
		<path class="st0" d="M87.6,196c-11.9,0-23.9,0-35.8,0c-0.7-0.4-0.4-1.1-0.4-1.6c0-10.7,0-21.4,0-32.1c0-27.3,0-54.7,0-82
			c0-0.7-0.1-1.4,0.3-2c0.9-0.7,1.8-0.4,2.8-0.3c0.5,0.3,1.1,0.4,1.6,0.4c0.5,0,1.1,0,1.4,0.5c0.3,0.8,0.2,1.5,0.2,2.3
			c0,27.9,0,55.9,0,83.8c0,0.5,0,0.9,0,1.4c-0.1,0.4-0.4,0.7-0.7,1c-0.7,0-0.9-0.7-1.8-1c0.7,0.6,0.7,1.1,0.7,1.7
			c0.1,1.5,0.3,1.7,1.8,1.7c0.4,0,0.8,0.1,1.2-0.1c-0.3-0.5-1.2-0.4-1.2-1.2c0.4-0.8,1.1-0.4,1.7-0.3c0.9,0.3,1.4,1.2,2.2,1.7
			c0.2,0.2,0.3,0.4,0.4,0.7c0,0.4,0.1,0.8,0.1,1.2c-0.1,0.2-0.2,0.3-0.4,0.3c-0.6-0.1-0.7-0.7-1.1-1c-0.5,2.8-0.1,3.2,2.8,3
			c-0.3-0.6-1.1-0.5-1.2-1.2c0.4-0.8,1-0.4,1.6-0.3c0.7,0.2,1.2,0.8,1.8,1.2c0.2,0.1,0.3,0.3,0.4,0.4c0.2,0.3,0.3,0.6,0.3,0.9
			c0,1.3,1,1.6,2,2c0.7,0.2,1,0.7,1.5,1.2c0.2,0.2,0.3,0.5,0.3,0.7c0,0.3-0.2,0.5-0.4,0.7c-0.8,0.8-0.7,1.8-0.3,2.6
			c0.5,1.2,1.7,0.7,2.9,0.7c-1.3-0.9-2.7-1.4-2.5-3c0.1-0.2,0.2-0.3,0.4-0.4c0.1,0,0.3,0,0.4,0c0.3,1.1,1,1.8,2.2,2
			c0.7,0.2,1.1,0.7,1.5,1.2c0.2,0.2,0.3,0.5,0.3,0.7c0,0.3-0.2,0.5-0.4,0.7c-0.8,0.8-0.5,1.7-0.4,2.6c0.1,0.6,0.6,0.7,1.2,0.7
			c0.6,0.1,1.2-0.1,1.7,0.3c0.3,0.6,0.8,0.8,1.2,1.2c0.1,0.2,0.2,0.5,0.2,0.8c0.2,2,0.2,2,2.2,2c1,0,2,0,3,0
			C84.4,192,87.2,194.8,87.6,196z"/>
		<path class="st1" d="M69.4,23.4c0.2-3.1,0.2-3.1,3.4-3.1c1.7,0,3.4,0,5.1,0c0.8,0,0.8,0.3,0.7,0.9c0.4,1.8-0.1,3.6,0.3,5.3
			c-0.1,0.6-0.5,0.7-1,0.5c-1-0.3-1,0.3-0.9,1c-0.1,0.8,0.3,1.3,0.9,1.7c0.1,0.1,0.2,0.2,0.3,0.3c0.5,0.6,0.4,1.4,0.4,2.1
			c0,3.6,0,7.1,0,10.7c0,0.6-0.1,1.2,0.3,1.7c0.1,0.2,0.1,0.3,0.1,0.5c0.4,3.6,0.2,7.1,0.2,10.7c0,0.4-0.1,0.8-0.4,1.1
			c-0.4,0.3-1,0.3-1.5,0.3c-2.1,0-4.3,0-6.4,0c-0.5,0-1,0-1.5-0.3c-0.5-0.6-0.4-1.3-0.4-1.9c0-3,0-6,0-9c0-0.2,0-0.3,0-0.5
			c0-0.3,0.1-0.6,0.3-0.8c0.1-0.1,0.3-0.2,0.5-0.3c0.4-0.1,0.5-0.4,0.6-0.7c0.1-0.1,0.1-0.2,0.3-0.3c0.2-0.1,0.3-0.1,0.5-0.2
			c0.2,0,0.4-0.1,0.5-0.2c0.3-2.4,0.1-4.7,0.1-7.1c0-1.7,0.3-3.5-0.2-5.1c-0.2-0.1-0.4-0.1-0.5-0.1c-0.2,0-0.4,0-0.6,0
			c-0.2,0-0.4-0.1-0.6-0.2c-0.1-0.1-0.2-0.2-0.2-0.4c-0.1-0.4-0.5-0.8-0.6-1.2C68.7,26.9,69.4,25.2,69.4,23.4z"/>
		<path class="st2" d="M87.6,196c-1.4-1.4-2.8-2.7-4.1-4.1c-0.9-0.1-1.5-0.6-1.4-1.6c0.4-0.5,0.9-0.5,1.4-0.5c7.4,0,14.8-0.1,22.2,0
			c0.3,0,0.5,0.1,0.7,0.4c1.8,1.9,3.7,3.8,5.5,5.7C103.7,196,95.6,196,87.6,196z"/>
		<path class="st3" d="M186.1,29c1.9,0,2,0.1,2,2c0,13.9,0,27.9,0,41.8c0,1,0.3,2.1-0.2,3.1c0,1.3-0.1,2.7-0.1,4
			c0,38.4,0,76.7,0,115.1c0,0.3,0,0.6,0,1c-0.1,0-0.1,0-0.2-0.1c0-10.3,0-20.6,0-31c0-28.3,0-56.7,0-85c0-0.6,0-1.2,0-1.8
			c-0.2-0.3-0.3-0.7-0.3-1c0.1-0.9,0-1.7-0.6-2.4c-0.1-0.2,0-0.5,0.1-0.7c0.3-0.7,0.2-1.5,0.2-2.3c0-4.3,0-8.6,0-12.9
			c0-8.9,0-17.8,0-26.7c0-0.6,0.2-1.3-0.3-1.8c-0.5-0.3-1.1-0.2-1.6-0.2c-4.5,0-8.9,0-13.4,0c-0.3,0-0.7,0-1,0
			c-0.4,0-0.7-0.1-0.9-0.5c0-0.2,0.1-0.3,0.3-0.4c0.4-0.2,0.9-0.2,1.4-0.2"/>
		<path class="st4" d="M51.8,78.2c-0.2,0.7-0.3,1.4-0.3,2.2c0,38,0,75.9,0,113.9c0,0.6-0.1,1.2,0.3,1.7c-0.4,0-0.5-0.1-0.5-0.5
			c0-0.5,0-0.9,0-1.4c0-38.1,0-76.1,0-114.2c0-0.6,0-1.2-0.1-1.8c-0.3-0.4-0.3-0.7,0-1.1c0-0.4,0-0.7,0-1.1c-0.2-0.3-0.3-0.6-0.2-1
			c0.1-0.2,0.2-0.3,0.3-0.4c2-0.2,4-0.5,5.9,0.2c0.1,0.1,0.1,0.3,0.1,0.4c-0.8,0.9-1.8,0.4-2.7,0.5c-0.5,0.1-1.1,0-1.6-0.1
			c0.6,0.2,1.1,0.4,1.6,0.8c0.2,0.3,0.2,0.6,0.1,1c-0.5,0.6-1.2,0.4-1.8,0.3C52.4,77.6,51.9,77.4,51.8,78.2z"/>
		<path class="st5" d="M189.5,74.3c0-5.3,0-10.7,0-16c0-0.3,0-0.6,0-1c0-0.4,0.2-0.6,0.6-0.6c0.4,0,0.5,0.3,0.5,0.7
			c0,0.7,0,1.4,0,2.1c0.4,0.6,0.4,1.1,0,1.7c0,4.4,0,8.8,0,13.2C190.2,74.6,189.8,74.6,189.5,74.3z"/>
		<path class="st6" d="M169.9,26.4c0,0.4,0,0.7,0,1.1c0,0.3,0,0.6,0.3,0.8c0,0.3,0.1,0.9-0.5,0.6c-0.5-0.5-0.4-1.1-0.4-1.7
			c0-1.6,0-3.2,0-4.8c0-1.5-0.2-1.6-1.7-1.7c-2.2,0-4.4,0.1-6.6-0.1c-0.3,0-0.5-0.1-0.7-0.3c0.3-0.5,0.7-0.3,1.1-0.3
			c2.6,0,5.3,0,7.9,0c1,0,1.1,0.7,1.1,1.4c0,1.4,0,2.7-0.3,4.1c0-1.4,0-2.7,0-4.1c-0.1,0-0.2,0-0.3,0
			C169.9,23.1,169.9,24.8,169.9,26.4z"/>
		<path class="st7" d="M51.2,27.5c5.4,1,10.8,0.4,16.3,0.6c-0.6,0.4-1.1,0.2-1.6,0.2c-3.3,0-6.5,0-9.8,0c-1.2,0-2.4,0.4-3.7,0.3
			c-0.5-0.1-1,0-1.3-0.6C51.2,27.9,51.2,27.7,51.2,27.5z"/>
		<path class="st8" d="M191.1,74.9c0,1.2,0,2.4,0,3.7c-0.7-0.1-0.9-0.5-1.2-0.8c-0.1-0.1-0.2-0.3-0.2-0.5c1.2-0.5-0.1-1.9,0.9-2.4
			C190.7,74.7,190.9,74.7,191.1,74.9z"/>
		<path class="st6" d="M186.7,28.6c0.5-1.2,1.5-0.1,2.2-0.5c0,0.5,0.5,0.7,0.8,1.1c0.3,0.3,0.4,0.6,0.2,1c-0.3,0.3-0.7,0.2-0.9-0.1
			C188.2,29.4,187.8,28.4,186.7,28.6z"/>
		<path class="st9" d="M160.3,20.4c0.2,0,0.4,0,0.5,0c0.4,0.4,0.1,1,0.1,1.4c0,2.2-0.2,4.4,0.1,6.5c0.1,0.4,0,0.8-0.2,1.2
			c-0.1,0.3-0.2,0.6-0.5,0.8c-0.2,0-0.3-0.1-0.4-0.2c-0.1-0.1-0.1-0.3-0.1-0.4c0-0.2,0-0.3,0-0.5c0-0.8-0.2-1.6,0.4-2.2
			c0-0.2,0-0.4,0-0.6C160.3,24.4,160.3,22.4,160.3,20.4z"/>
		<path class="st10" d="M78.4,26.9c0-1.9,0-3.9,0-5.8c0.5,1.5,0,3.1,0.2,4.7c0.2,0.2,0.3,0.4,0.4,0.6c0.1,0.9,0.1,1.9-0.3,2.7
			c-0.2,0.3-0.4,0.7-0.9,0.5C77.2,28.6,77.9,27.8,78.4,26.9z"/>
		<path class="st11" d="M188.4,26.4c-0.6,0-1.1,0-1.7,0c0.7-1.2,1.9-0.3,2.8-0.6c0.2,0.2,0.2,0.4,0,0.6
			C189.1,26.4,188.7,26.4,188.4,26.4z"/>
		<path class="st12" d="M78.7,26.4c0-0.2,0-0.4,0-0.5c0.7,0.2,1.7-0.6,2.2,0.5v0C80.2,26.9,79.5,26.9,78.7,26.4z"/>
		<path class="st13" d="M51.2,77.1c0,0.4,0,0.7,0,1.1c-0.4-0.1-1.1,0.2-1-0.6C50.2,76.9,50.8,77.1,51.2,77.1z"/>
		<path class="st14" d="M51.2,75.1c0,0.3,0,0.5,0,0.8c-0.4-0.1-0.8,0.2-1-0.4c-0.1-0.4,0-0.7,0.5-0.7C50.9,74.8,51.1,75,51.2,75.1z"
			/>
		<path class="st6" d="M188.7,73.1c0-1,0-2,0-2.9c0,0,0.1,0,0.1,0c0,1,0,2,0,3C188.8,73.1,188.7,73.1,188.7,73.1z"/>
		<path class="st6" d="M191.1,74.9c-0.2,0-0.4,0-0.6,0c-0.3-0.3-1.2,0.6-1.1-0.6c0.4,0,0.7,0,1.1,0
			C190.9,74.3,191.1,74.5,191.1,74.9z"/>
		<path class="st15" d="M189.5,26.4c0-0.2,0-0.4,0-0.6c0.5,0.1,1-0.2,1.6,0.3C190.5,26.5,190,26.3,189.5,26.4z"/>
		<path class="st15" d="M191.1,27.4c0,0.2,0,0.4-0.2,0.4c-0.4,0-0.5-0.3-0.7-0.5c-0.1-0.2,0-0.3,0.2-0.4
			C190.8,26.9,191,27,191.1,27.4z"/>
		<path class="st15" d="M190.7,28.4c0.5,0.7,0.4,1.2,0.2,1.7C190.4,29.7,190.6,29.2,190.7,28.4z"/>
		<path class="st6" d="M190.6,61.1c0-0.6,0-1.1,0-1.7C191.4,60,191.4,60.5,190.6,61.1z"/>
		<path class="st6" d="M188.8,63.3c-0.2-0.8-0.2-1.3,0-1.8C188.8,61.9,188.8,62.4,188.8,63.3z"/>
		<path class="st16" d="M51.2,75.1c-0.2,0-0.4-0.1-0.5-0.3c0-0.2,0-0.4,0-0.6c0.2,0,0.4,0,0.5,0c0.2,0.2,0.2,0.3,0.1,0.5
			C51.3,74.9,51.3,75,51.2,75.1z"/>
		<path class="st17" d="M182,78.2c0,36.5,0,73,0,109.6c0,0.8,0.8,1.9-0.5,2.5c-0.1-0.2-0.1-0.3-0.1-0.5c0-37.1,0-74.1,0-111.2
			c0-0.8-0.1-1.7,0.2-2.4c1.7-0.8,3.5-0.8,5.2,0c0,0.2,0,0.3-0.1,0.5c-0.9,0.6-2,0.2-2.9,0.3c-0.6,0.1-1.2-0.1-1.4,0.7
			C182.3,77.8,182.2,78,182,78.2z"/>
		<path class="st18" d="M181.5,190c0,0.1,0,0.1,0,0.2c-24.7,0-49.4,0-74.1,0c-0.4,0-0.7,0-1.1,0c-0.2,0-0.3,0-0.5-0.1
			c0-0.2,0.1-0.4,0.2-0.4c0.6-0.3,1.3-0.2,2-0.2c23.7,0,47.4,0,71.1,0c0.6,0,1.3,0,1.9,0.2C181.2,189.8,181.4,189.9,181.5,190z"/>
		<path class="st19" d="M182,78.2c0-0.2,0-0.4,0-0.5c0.8-0.6,1.7-0.3,2.6-0.4c0.8,0,1.5,0,2.1-0.7l0,0c0.7-0.4,0.6,0.2,0.8,0.5
			c0,0.4,0,0.7,0,1.1C185.7,78.2,183.9,78.2,182,78.2z"/>
		<path class="st20" d="M57.3,165.5c0-28.3,0-56.6,0-85c0-0.6,0-1.2-0.1-1.8c-0.2-0.2-0.3-0.4-0.3-0.6c-0.1-0.7-0.1-1.5,0.1-2.2
			c0.1-0.2,0.2-0.3,0.3-0.4c0.3-0.5,0.8-0.5,1.4-0.5c11.2,0,22.3,0,33.5,0c0.6,0,1.3-0.1,1.9,0.3c0.2,0.2,0.2,0.5,0.1,0.7
			c-0.5,0.4-1.1,0.3-1.7,0.3c-10.9,0-21.9,0-32.8,0c-0.5,0-1-0.1-1.5,0.2c-0.2,0.3-0.2,0.7-0.3,1.1c0,0.2,0,0.5,0,0.7
			c0,0.3,0,0.5,0,0.8c0,27.9,0,55.9,0,83.8c-0.2,0.7,0.3,1.4,0.2,2.1c-0.1,0.2-0.2,0.3-0.4,0.4C57.6,165.5,57.5,165.5,57.3,165.5z"
			/>
		<path class="st21" d="M61.7,170.7c-0.1-0.2-0.2-0.4-0.3-0.6c-0.6-0.7-1.1-1.5-2-1.8c-0.4-0.1-0.6-0.3-0.7-0.7
			c-0.1-0.2-0.1-0.5,0-0.7c0.1-0.3,0.2-0.4,0.5-0.6c0.1,0,0.2-0.1,0.3-0.1c7-0.1,13.9-0.1,20.9,0c0.1,0,0.3,0.1,0.4,0.1
			c0.2,0.1,0.3,0.2,0.3,0.4c-0.5,0.7-1.3,0.5-2,0.5c-4.9,0-9.8,0-14.7,0c-0.5,0-1-0.1-1.6,0.2c1.3,1.1,0.7,2.3,0.4,3.5
			c-0.1,0.1-0.1,0.3-0.3,0.4c-0.1,0.1-0.3,0.1-0.4,0.1C62,171.4,61.9,171,61.7,170.7z"/>
		<path class="st22" d="M82.1,190.8c0.5,0.4,0.9,0.7,1.4,1.1c-1.6,0.6-3.2,0.2-4.9,0.2c-0.6,0-0.9-0.6-0.9-1.2c0-0.7,0-1.4,0-2.1
			c-0.2-0.2-0.2-0.4-0.1-0.6c0.2-0.2,0.4-0.2,0.6-0.2c0.5,0,0.9,0.3,1.2,0.7c0.1,0.2,0.2,0.3,0.3,0.5
			C80.1,190.3,81.2,190.5,82.1,190.8z"/>
		<path class="st22" d="M57.8,168.5c0.3,0.4,0.7,0.5,1.2,0.6c0.5,0.1,0.5,0.5,0.5,0.8c0,0.4-0.4,0.2-0.7,0.2c-0.5,0-1,0-1.5,0
			c-1.3,0.1-1.8-0.5-1.8-1.8c0-0.6,0.3-1.4-0.7-1.6c-0.3-0.1-0.2-0.3,0-0.5c0.2-0.2,0.4-0.5,0.8-0.2c0.5,0.4,0.9,0.9,1.4,1.3
			c0.2,0,0.4,0.1,0.5,0.2C57.8,167.8,58.2,168,57.8,168.5z"/>
		<path class="st23" d="M62.2,172.9c0.3,0.4,0.7,0.5,1.2,0.6c0.4,0,0.5,0.4,0.5,0.7c0.1,0.6-0.4,0.3-0.7,0.4c-0.2,0-0.5,0-0.7,0
			c-2.4,0-3.3-1.2-2.5-3.6c0.1-0.2,0.1-0.4,0.3-0.4c0.3,0,0.7,0,0.8,0.4c0.1,0.4,0.1,0.8,0.6,1C61.9,172.3,62.7,172.2,62.2,172.9z"
			/>
		<path class="st22" d="M66.4,178.9c-1.8,0-2.7-1.7-2-3.4c0.1-0.3,0.3-0.2,0.5-0.3c0.3-0.1,0.5,0,0.6,0.4c0.2,1.1,1,1.7,1.9,2.2
			c0.3,0.2,0.9,0.1,0.8,0.7c-0.1,0.7-0.7,0.4-1.1,0.5C66.9,179,66.7,178.9,66.4,178.9z"/>
		<path class="st22" d="M69.9,179.8c0.1,1.4,0.9,2.1,2.1,2.5c0.3,0.1,0.6,0.2,0.6,0.6c0,0.5-0.4,0.5-0.8,0.5c-0.5,0-1.1,0-1.6,0
			c-1,0-1.4-0.5-1.4-1.4c0-0.5,0-1.1,0-1.6c0-0.6,0.3-0.8,0.8-0.8C69.9,179.4,70,179.5,69.9,179.8z"/>
		<path class="st24" d="M76.6,187.8c-0.4,0-0.7,0-1.1,0c-2,0-3.1-1.9-2-3.7c0.1-0.1,0.4-0.1,0.6-0.2c0.2-0.1,0.4,0.1,0.5,0.2
			c0.4,1.1,0.8,2.1,2.3,2.3c1.2,0.2,0.3,0.9-0.1,1.3C76.7,187.7,76.6,187.8,76.6,187.8z"/>
		<path class="st25" d="M57.3,165.5c0.1,0,0.1,0,0.2,0c0.5-0.1,1-0.2,1.5-0.2c7.2,0,14.5,0,21.7,0c0.4,0.1,0.9,0,1,0.6
			c-0.2,0.3-0.6,0.3-0.9,0.3c-6.9,0-13.8,0-20.7,0c-0.6,0-1.2-0.1-1.7,0.3c-0.1,0.1-0.3,0.2-0.4,0.3c-0.3,0.1-0.5,0-0.5-0.3
			C57.4,166.2,57.2,165.8,57.3,165.5z"/>
		<path class="st26" d="M65.8,174.3c-0.1-0.1-0.2-0.2-0.3-0.3c-0.7-0.3-0.8-1.3-1.7-1.3c-0.3-0.1-0.6-0.3-0.5-0.7
			c0.4-0.8,1.1-1,1.9-1c0.5,0,1.1-0.2,1.4,0.3c0.3,0.5-0.2,0.8-0.4,1.2c-0.3,0.4-0.1,0.8,0,1.2C66.2,173.9,66.1,174.1,65.8,174.3z"
			/>
		<path class="st27" d="M51.8,78.2c-0.3-0.3-0.4-0.6-0.1-0.9c0.3-0.3,0.7-0.3,1,0c0.6,0.6,1.2,0.4,1.9,0.4c0.1,0.1,0.2,0.3,0.1,0.4
			c0,0-0.1,0.1-0.1,0.1C53.6,78.2,52.7,78.2,51.8,78.2z"/>
		<path class="st28" d="M72.7,181.7c-1.5,0.1-2.4-0.8-2.2-2.2c0.8-0.1,1,0.6,1.5,1C72.3,180.8,72.9,181.1,72.7,181.7z"/>
		<path class="st29" d="M68.3,177.3c-1.3,0-2.3-1-2.2-2.2c0.4-0.2,0.6,0.1,0.9,0.2c0.1,0,0.1,0.1,0.1,0.1c0,0,0.1,0.1,0.1,0.1
			c0.1,0.1,0.3,0.2,0.4,0.4C67.9,176.4,68.5,176.7,68.3,177.3z"/>
		<path class="st30" d="M57.8,168.5c0-0.4-0.4-0.5-0.6-0.8c-0.2-0.5,0.2-0.6,0.6-0.8l0-0.1c0.1-0.1,0.2-0.1,0.3,0
			c0.4,0.2,0.5,0.6,0.8,0.9c0.2,0.2,0.4,0.3,0.6,0.5c0.1,0.1,0.1,0.1,0.1,0.2c0,0.1-0.1,0.1-0.1,0.1C58.9,168.6,58.4,168,57.8,168.5
			z"/>
		<path class="st30" d="M63.3,172.1c0.2,0.2,0.3,0.4,0.5,0.6c0.1,0,0.1,0.1,0.1,0.2c0,0.1,0,0.1-0.1,0.1c-0.6,0.1-1.1-0.4-1.7,0
			c0.2-0.5-0.7-0.3-0.6-0.8c0.1-0.1,0.2-0.2,0.3-0.3c0-0.2,0.1-0.4,0.3-0.6c0.1,0,0.1,0,0.2,0c0.3,0.2,0.7,0.3,0.9,0.7
			C63.3,172,63.3,172,63.3,172.1z"/>
		<path class="st31" d="M68.3,177.3c-0.2-0.5-0.9-0.7-0.8-1.4c1-0.1,1.3,0.8,2,1.2c0.3,0.3,0.5,0.6,0.6,1c0,0.1,0,0.3-0.1,0.4
			c-0.1,0.1-0.2,0.1-0.3,0C69.2,178,68.8,177.7,68.3,177.3z"/>
		<path class="st32" d="M72.7,181.7c-0.3-0.4-0.6-0.7-0.8-1.1c-0.1-0.3,0.1-0.3,0.3-0.4c0.7,0.2,1.2,0.8,1.8,1.3
			c0.2,0.3,0.5,0.6,0.6,1c0,0.1,0,0.3-0.1,0.4c-0.1,0.1-0.2,0.1-0.3,0C73.6,182.4,73.2,182.1,72.7,181.7z"/>
		<path class="st33" d="M57.3,78.2c0,0.2,0,0.4,0,0.5c-0.9-0.3-2,0.6-2.7-0.6c0,0,0,0,0,0C55.4,77.6,56.4,77.6,57.3,78.2z"/>
		<path class="st34" d="M74.1,182.8c0.1,0,0.2,0,0.3,0c0.1-0.2,0.3-0.2,0.5-0.1c0.5,0.4,1,0.7,1.3,1.2c0.2,0.2,0.4,0.4,0.4,0.8
			c-0.1,0.2-0.2,0.3-0.4,0.4c-0.6,0-0.9-0.5-1.3-0.9c-0.1-0.1-0.2-0.2-0.2-0.3c-0.2-0.2-0.2-0.4-0.3-0.6
			C74.3,183.2,74.2,183,74.1,182.8z"/>
		<path class="st34" d="M72.1,180.3c-0.1,0.1-0.2,0.2-0.3,0.3c-0.5-0.4-0.9-0.7-1.4-1.1c0,0,0,0,0,0c-0.3-0.1-0.4-0.3-0.6-0.5
			c-0.1-0.2-0.2-0.4-0.3-0.5c0.1,0,0.2,0,0.3,0c0.1-0.2,0.3-0.2,0.5-0.1c0.5,0.3,0.9,0.7,1.3,1.2c0.1,0.2,0.3,0.3,0.4,0.5
			C72.2,180.1,72.2,180.2,72.1,180.3z"/>
		<path class="st35" d="M66.9,175.6c-0.3-0.2-0.6-0.3-0.8-0.5c-0.1-0.3-0.2-0.6-0.3-0.8c0-0.2,0.1-0.4,0.3-0.6c0.1,0,0.1,0,0.2,0
			c0.3,0.1,0.7,0,1,0.2c0.1,0.2,0,0.3,0,0.5C67.1,174.8,67.3,175.3,66.9,175.6z"/>
		<path class="st36" d="M59.5,168.5c0-0.1,0-0.2,0-0.3c1,0.3,1.6,1,1.9,1.9C60.6,169.8,60.2,168.9,59.5,168.5z"/>
		<path class="st37" d="M63.9,172.9c0-0.1,0-0.2,0-0.3c0.1-0.5,0.3-0.5,0.6-0.1c0.4,0.5,0.7,1,1.1,1.5
			C64.7,174,64.5,173.1,63.9,172.9z"/>
		<path class="st38" d="M77.7,188.3c0,0.2,0,0.4,0,0.6c-0.9,0.1-1.2-0.2-1.1-1.1c0,0,0,0,0,0C77.2,187.3,77.5,187.8,77.7,188.3z"/>
		<path class="st39" d="M57.8,166.9c-0.2,0.3-0.4,0.5-0.6,0.8c-0.1-0.1-0.2-0.2-0.3-0.3c0-0.4,0-0.8,0.5-0.8
			C57.6,166.7,57.7,166.8,57.8,166.9z"/>
		<path class="st40" d="M62.2,171.2c0,0.2-0.1,0.4-0.3,0.6c-0.4-0.3-0.2-0.7-0.3-1.1C61.9,170.9,62.1,171.1,62.2,171.2z"/>
		<path class="st28" d="M74.4,183.3c0.2,0.2,0.4,0.4,0.6,0.5c-0.1,0.3-0.3,0.4-0.6,0.3c-0.1-0.1-0.2-0.2-0.3-0.3
			C74.2,183.7,74.3,183.5,74.4,183.3z"/>
		<path class="st28" d="M69.9,178.9c0.2,0.2,0.4,0.4,0.6,0.5c-0.2,0.1-0.4,0.2-0.6,0.3c-0.1-0.1-0.2-0.2-0.3-0.3
			C69.8,179.3,69.9,179.1,69.9,178.9z"/>
		<path class="st41" d="M78.7,56.7c-0.1-3.8,0.3-7.7-0.2-11.5c0-0.1,0.1-0.2,0.2-0.3c0.4-0.1,0.8-0.1,1.2,0.2
			c0.3,0.6,0.9,0.8,1.2,1.4c0.2,2.9,0.2,5.8,0.1,8.6C81.3,57,80.5,57.5,78.7,56.7z"/>
		<path class="st42" d="M69.2,45.3c0.4,0.4,0.2,1,0.2,1.4c0,3.3,0,6.6,0,9.9c-0.5,0.5-1.1,0.4-1.7,0.1c-0.2-0.2-0.3-0.5-0.3-0.7
			c-0.1-3.2-0.1-6.5,0.1-9.7c0-0.2,0.2-0.4,0.3-0.6C68.2,45.3,68.7,45.3,69.2,45.3z"/>
		<path class="st43" d="M67.7,56.7c0.6,0,1.1,0,1.7,0c3.1,0,6.2,0,9.3,0c2.8,0.1,2.2,0.1,2.3-2.2c0-1.8,0-3.5,0-5.3
			c0-1-0.4-1.9,0-2.9c-0.2-0.3-0.2-0.5,0.1-0.6c1.2,0.2,0.6,1.2,0.9,1.8c0,3,0,6,0,9c-0.1,0.6,0.1,1.3-0.7,1.5c-0.2,0-0.3,0-0.5-0.1
			c-0.6-0.3-1.2-0.2-1.8-0.2c-3.1,0-6.2,0-9.4,0c-0.6,0-1.2,0.1-1.7-0.2C67.6,57.2,67.6,56.9,67.7,56.7z"/>
		<path class="st44" d="M69.4,44.6c0,0.2,0,0.4-0.2,0.6c-0.5,0.5-1.6-0.1-1.6,1c-0.1,4.2-0.2,8.5,0.1,12.7c-0.1,0.4-0.2,0.7-0.6,0.7
			c-0.6-0.1-0.7-0.6-0.7-1c0-4.5-0.1-9,0-13.5c0-0.1,0.1-0.3,0.1-0.4c0.5-0.6,1.1-0.4,1.7-0.5C68.6,44.2,69.1,44.2,69.4,44.6z"/>
		<path class="st45" d="M77.9,29.7c0.2-0.2,0.4-0.4,0.6-0.6c0.3,0,0.4,0.2,0.5,0.5c0,0.2,0.1,0.3,0.1,0.5c0,1.6,0,3.1,0,4.7
			c0.1,2.8,0,5.5,0,8.3c0,0.3,0,0.6-0.1,0.9c0,0.2-0.1,0.3-0.2,0.4c-0.1,0.1-0.1,0.1-0.2,0.2c-0.8-0.2-0.5-0.9-0.5-1.4
			c0-3.7,0-7.5,0-11.2c0-0.8-0.1-1.6-0.6-2.3C77.7,29.6,77.8,29.6,77.9,29.7z"/>
		<path class="st46" d="M71.6,30.2c0.1-0.2,0.1-0.7,0.5-0.2c0.1,0.2,0.1,0.5,0.1,0.8c0,3.9,0,7.7,0,11.6c0,0.4,0.1,1-0.5,1.1
			c-0.4-0.4-0.4-1-0.4-1.6c0-3.4,0-6.7,0-10.1C71.2,31.3,71.2,30.7,71.6,30.2z"/>
		<path class="st47" d="M70,30.2c0.2,0,0.4,0,0.5,0c0.4,0.4,0.4,1,0.4,1.6c0,3.4,0,6.7,0,10.1c0,0.5,0,1.1-0.4,1.6l0,0
			c-0.2,0.2-0.5,0.2-0.7,0c-0.1-0.1-0.2-0.3-0.2-0.5c-0.1-3.8,0-7.6,0-11.4C69.6,31,69.6,30.6,70,30.2z"/>
		<path class="st48" d="M71.6,30.2c0,4.4,0,8.8,0,13.2c-0.2,0-0.4,0-0.5,0c-0.3-0.3-0.3-0.8-0.3-1.2c0-3.6,0-7.2,0-10.9
			c0-0.4,0-0.8,0.3-1.2C71.2,30.2,71.4,30.2,71.6,30.2z"/>
		<path class="st49" d="M71,30.2c0,4.4,0,8.8,0,13.2c-0.2,0-0.4,0-0.6,0c0-4.4,0-8.8,0-13.2C70.7,30.2,70.9,30.2,71,30.2z"/>
		<path class="st50" d="M69.4,29.4c0-0.1,0.1-0.2,0.1-0.2c0.5,0.1,0.4,0.5,0.5,0.8c-0.3,1-0.1,2.1-0.1,3.1c0,3,0,6,0,9
			c0,0.4-0.1,0.9,0.1,1.3l0,0c0.1,0.1,0.1,0.3,0.1,0.4c-0.3,0.6-0.7,0.7-1.3,0.3c0-0.2,0-0.3,0.1-0.5c0.3-1.2,0.1-2.5,0.1-3.7
			c0-3.2,0-6.5,0-9.7C69,30,69.2,29.7,69.4,29.4z"/>
		<path class="st51" d="M69.9,43.5c-0.3-0.3-0.3-0.6-0.3-1c0-3.8,0-7.7,0-11.5c0-0.4-0.1-0.7,0.3-1c0,0.1,0,0.2,0,0.3
			C70,34.7,69.9,39.1,69.9,43.5z"/>
		<path class="st52" d="M77.9,29.7c-0.1,0-0.2,0-0.3,0c0,0,0,0,0,0c-0.3-0.6-0.3-1.4-1.1-1.6c0-1.5,0.4-1.7,1.9-1.1
			C78.6,27.9,77.6,28.7,77.9,29.7z"/>
		<path class="st53" d="M81.5,47.3C81.3,46.8,82,46,81,45.7c-0.4-0.1-0.8-0.2-1.1-0.5c-0.4,0-0.8,0.1-1.1-0.3c0-0.1,0-0.2,0-0.3
			c0,0,0,0,0,0c0.7-0.5,1.5-0.3,2.2-0.3C82.4,45,82.6,46.3,81.5,47.3z"/>
		<path class="st10" d="M76.6,28c1,0.1,1.3,0.7,1.1,1.6C76.5,29.7,76.6,28.8,76.6,28z"/>
		<path class="st54" d="M67.2,45.7c0.4-1,1.3-0.4,2-0.5c0,0.1,0,0.1,0,0.2c-0.3,0.4-0.7,0.3-1.1,0.3C67.7,45.9,67.5,45.9,67.2,45.7z
			"/>
		<path class="st51" d="M68.9,44.3c0.5,0.1,0.8-0.3,1.1-0.6c0.2,0.3,0.2,0.5,0,0.8c-0.2,0-0.4,0-0.6,0c-0.4,0-0.7,0-1.1-0.1
			C68.4,44.1,68.6,44.1,68.9,44.3z"/>
		<path class="st55" d="M69.9,44.6c0-0.3,0-0.5,0-0.8c0-0.1,0-0.2,0-0.3c0.2,0,0.4,0,0.5,0C70.4,43.9,70.7,44.5,69.9,44.6z"/>
		<path class="st38" d="M82.1,190.8c-1.3,0.3-2.2-0.2-2.8-1.4c0.7-0.5,1.2,0.6,1.9,0.3c0.3-0.1,0.5-0.1,0.8-0.1c0.3,0,0.6,0,0.9,0
			c7-0.1,14.1,0,21.1,0c0.5,0,1,0,1.5,0.3c0.1,0.1,0.1,0.1,0.2,0.2c0,0.1,0,0.2,0,0.2c-7.4,0-14.8,0-22.2,0.1
			C83.1,190.3,82.3,189.9,82.1,190.8z"/>
		<path class="st56" d="M51.3,74.8c0-0.2-0.1-0.4-0.1-0.5c0-11.1,0-22.2,0-33.4c0-3.6,0-7.1,0.1-10.7c0.3-0.5,0.6-0.9,1.2-0.5
			c0.1,0.1,0.2,0.2,0.4,0.3c0.5,0.8,0.3,1.6,0.3,2.4c0,13.1,0,26.2,0,39.4c0,0.6-0.3,1.4,0.5,1.8c0.7,0.2,1.5,0.1,2.2,0.1
			c11.6,0,23.2,0,34.9,0c0.7,0,1.4,0,2.1,0c0.5,0,0.9,0,1.3,0.4c0.2,0.3,0.2,0.5-0.1,0.7c-0.5,0.2-1,0.1-1.5,0.1c-11,0-22,0-33,0
			c-0.7,0-1.5-0.1-2.2,0C55.4,74.6,53.3,75,51.3,74.8z"/>
		<path class="st57" d="M52.3,29.7c-0.5-0.1-0.6,0.5-1,0.5c-0.2-1.2,0.7-0.9,1.2-0.9c5.6,0,11.2,0,16.8,0c0,0.3,0,0.6,0,0.9
			c-0.2,0.2-0.4,0.2-0.6,0.1c-0.5-0.3-1-0.3-1.5-0.3c-4.3,0-8.7,0-13,0C53.6,30.1,52.9,30.1,52.3,29.7z"/>
		<path class="st58" d="M186.7,74.3c0,0.2,0,0.4,0,0.5c-0.6,0.6-1.3,0.4-1.9,0.4c-1.1,0-2.1,0-3.2,0.1c-0.9-0.2-1.7-0.1-2.6-0.1
			c-21.5,0-42.9,0-64.4,0c-0.8,0-1.6,0-2.3-0.1c-0.4-0.1-0.7-0.3-1-0.6c-8.7-8.7-17.3-17.3-26-26c-0.2-0.3-0.4-0.5-0.6-0.8
			c-0.1-0.1-0.1-0.2-0.1-0.4c-0.2-1.1,0.1-2.2-0.2-3.3c-0.7,0.4-0.7,1.2-1.3,1.6c-0.1,0-0.3,0-0.4,0c-0.1-0.1-0.2-0.2-0.2-0.3
			c0-1-0.3-1.7-1.6-1.4c-0.2,0.1-0.4-0.1-0.6-0.3c-0.1-0.1-0.1-0.3-0.2-0.4c-0.1-2.8,0-5.6-0.1-8.4c-0.1-1.5,0.2-3-0.3-4.5
			c-0.1-0.2-0.1-0.5,0.1-0.7c0.4-0.2,0.8-0.1,1.2,0c0.2,0.1,0.3,0.1,0.5,0.2c0.8,0.1,1.6,0.1,2.3,0.1c24,0,47.9,0,71.9,0
			c0.4,0,0.7,0.1,1,0.3c0.5,0.6,0.4,1.3,0.4,2c0,2.9,0,5.9,0,8.8c0,1,0.1,1.9,0.8,2.7c0.1,0.6-0.4,0.7-0.8,1
			c-0.2,0.1-0.3,0.2-0.5,0.3c-0.7,0.3-0.2,0.9-0.3,1.3c0.2,2.7,0.1,5.4,0.2,8.1c0,1.1-0.3,2.3,0.1,3.4c0.1,0.4,0.1,0.7,0.2,1.1
			c0,0.5,0.1,0.9,0.8,0.9c3.7,0,7.4,0,11.1,0c0.6,0,1.5-0.2,1.6,0.8c-0.4,0.5-1,0.4-1.5,0.4c-3.3,0-6.7,0-10,0c3.2,0,6.5,0,9.7,0
			c0.5,0,1,0.1,1.5-0.1c0.2-0.1,0.3-0.3,0.5-0.3c0.3,0,0.4,0.2,0.6,0.3c0.1,0.1,0.2,0,0.1-0.1c-0.1-0.1,0,0.1-0.1-0.1
			c0.2-0.9,0.8-0.7,1.4-0.6c0.4,0.3,0.6,0.9,1.3,1c1.3,0.7,2.2,2,3.2,3c3,3,6,6,9,9C186.5,73.2,187.1,73.5,186.7,74.3z"/>
		<path class="st1" d="M160.5,29.7c0.5-0.9,0-1.8,0-2.7c0.1-2.2-0.2-4.5,0.3-6.7c2.6,0,5.2,0,7.8-0.1c0.7,0,0.9,0.2,0.9,0.9
			c0,2.5,0.1,5.1,0.1,7.6c0,0.2,0,0.3,0,0.5c0,0.1,0,0.2,0,0.3c-0.2,4.3-0.1,8.6-0.1,12.8c0,0.6,0.2,1.3,0.4,1.9
			c0.1,0.3,0.1,0.5,0.1,0.8c0.2,3.4,0.1,6.7,0.1,10.1c0,0.5,0,1.1-0.4,1.5c-0.7,0.4-1.4,0.4-2.1,0.4c-1.9,0-3.8,0-5.7,0
			c-1.5,0-1.8-0.4-1.9-1.9c0-2.6,0-5.1,0-7.7c0-0.7,0-1.5,0-2.2c0-0.2,0-0.5,0-0.7c0-0.2,0-0.5,0.1-0.7c0.1-0.2,0.2-0.4,0.4-0.6
			c1.1,0,1.2-0.6,1.2-1.6c-0.1-3.9,0-7.9-0.1-11.8c0.1-0.2-0.2-0.2,0-0.1c0.1,0,0,0.1,0,0.1c-0.1,0.1-0.1,0.3-0.2,0.3
			C160.7,30.5,160.7,30,160.5,29.7z"/>
		<path class="st59" d="M186.7,74.3c0-0.3-0.2-0.6-0.4-0.8c-3.4-3.4-6.8-6.7-10.2-10.1c-0.8-0.8-1.4-1.7-2.3-2.3
			c-0.4-0.3-0.8-0.6-1-1.1c-0.2-0.2-0.5-0.3-0.5-0.6c0.1-4.4,0-8.9,0-13.3c0-0.5,0-0.9-0.4-1.3c-0.2-0.4,0-0.6,0.3-0.7
			c0.5-0.1,0.8,0.3,1.2,0.6c4.3,4.3,8.7,8.6,13,13c0.4,0.4,0.6,0.8,0.9,1.2c0,4.7,0,9.5,0,14.2C187.3,73.5,187.5,74.2,186.7,74.3z"
			/>
		<path class="st60" d="M187.3,58.9c-0.6-0.1-0.8-0.6-1.2-0.9c-4.6-4.6-9.1-9.1-13.7-13.7c-0.1-0.1,0-0.3,0.1-0.4
			c0.4-0.3,0.9-0.5,1.3-0.7c0.9-0.1,1.1,0.5,1.2,1.2c0.1,1.2,0.8,1.8,1.9,2c1.3,0.3,2.2,1.1,2.4,2.5c0.2,1.2,0.9,1.7,2,2
			c1.3,0.3,2.2,1.1,2.4,2.5c0.1,0.5,0.2,1,0.6,1.3c0.4,0.4,0.9,0.7,1.5,0.4c0.5-0.3,0.3-0.9,0.1-1.4c-0.3-0.6-0.4-1.2,0-1.8
			c0.4-0.6,0.2-1.2,0.2-1.9c0-6.4-0.1-12.8,0-19.3c0-0.2,0.1-0.3,0.1-0.4c0.1-0.2,0.3-0.3,0.5-0.4c0.5,0.3,0.3,0.8,0.3,1.3
			C187.3,40.3,187.3,49.6,187.3,58.9z"/>
		<path class="st61" d="M172.4,44c0,0.1,0,0.2,0,0.3c-0.2,0.1-0.4,0.1-0.6,0.2c-0.7,0.6-1.5,0.6-2.2,0c-0.4-0.5-0.5-1-0.5-1.6
			c0-4,0-8,0-12c0-0.4-0.3-1.1,0.5-1.2c0.3,0,0.6,0,0.9,0c0.2,0.3,0.1,0.6,0.1,1c0,4.1,0,8.1,0,12.2c0,0.5,0.2,0.8,0.7,0.8
			c0.3,0,0.7,0,0.9,0.2C172.3,43.9,172.3,44,172.4,44z"/>
		<path class="st62" d="M170.2,30.2c0.1-0.2,0.2-0.4,0.3-0.5c0.3,0,0.5,0,0.8,0c0.2,0.2,0.7,0.1,0.7,0.5c0,0.2-0.1,0.3-0.2,0.5
			c-0.3,3.7,0,7.5-0.1,11.2c0,0.7,0.2,1.5-0.4,2.1c-0.4,0-1,0.2-1.1-0.5c0.3-0.3,0.3-0.7,0.3-1c0-3.7,0-7.4,0-11.1
			C170.5,30.9,170.5,30.5,170.2,30.2z"/>
		<path class="st63" d="M181.7,75.1c1.7-0.5,3.4-0.1,5-0.2c1.6,0.3,0.6,1.5,0.8,2.2c-0.3-0.2-0.4-0.6-0.8-0.5
			c-0.1-0.7-0.6-0.5-1-0.5c-1.3,0-2.6,0-3.9,0C181.5,75.7,181.5,75.4,181.7,75.1z"/>
		<path class="st64" d="M171.8,30c-0.2,0-0.4,0-0.5-0.3c5.2,0,10.4,0,15.7,0c-0.1,0.1-0.2,0.2-0.3,0.2c-0.4,0.4-1,0.4-1.6,0.4
			c-3.9,0-7.8,0-11.8,0C172.8,30.4,172.3,30.4,171.8,30z"/>
		<path class="st65" d="M181.7,75.1c0,0.3,0.1,0.6,0.1,0.9c0,1,0,1.9,0,2.9c0,36.3,0,72.7,0,109c0,0.7,0.2,1.5-0.2,2.1
			c0-0.1,0-0.1,0-0.2c-0.5-0.6-0.4-1.3-0.4-2c0-3.4,0-6.9,0-10.3c0-31.9,0-63.7,0-95.6c0-1,0-1.9,0-2.9c0-0.2,0-0.5,0-0.8
			c0-0.2,0-0.5,0-0.7c0-0.4,0-0.7,0-1.1c0-0.2-0.1-0.4-0.3-0.6c-0.7-0.3-1.5-0.1-2.2-0.1c-27.3,0-54.7,0-82,0
			c-0.8,0-1.7,0.2-2.4-0.4c-11.5,0-23.1,0-34.6,0c-0.7,0-1.5-0.5-2.2,0.2c-0.2,0-0.2-0.1-0.1-0.3c0-0.1,0.1-0.2,0.1-0.3
			c0.6-0.3,1.2-0.2,1.8-0.2c11.2,0,22.5,0,33.7,0c0.5,0,0.9,0,1.4-0.1c0.7-0.5,1.5-0.3,2.3-0.4c4.2,0,8.3,0,12.5,0
			c1,0,1.9-0.1,2.8,0.4c0.7,0,1.4,0.1,2.1,0.1c21.9,0,43.8,0,65.8,0C180.3,74.9,181,74.7,181.7,75.1z"/>
		<path class="st66" d="M57.3,78.2c-0.9,0-1.8,0-2.7,0c0-0.2,0-0.4,0-0.6c0-0.4,0-0.7,0-1.1c-0.2-0.6,0.1-0.8,0.5-0.8
			c0.7,0,1.5-0.2,2.2,0.2C57.3,76.7,57.3,77.4,57.3,78.2z"/>
		<path class="st67" d="M57.3,76c-0.9,0.3-2-0.6-2.7,0.6c-1,0-1.8-0.9-2.9-0.6c0-0.2,0-0.4,0.1-0.5c1.9,0,3.7,0,5.6,0
			c0,0.1,0.1,0.2,0.1,0.3C57.3,75.8,57.3,75.9,57.3,76z"/>
		<path class="st68" d="M160.5,29.7c0.7,0.4,0.7,0.4,1.1-0.8c0.6,5.1,0,10,0.4,14.9c-0.5-0.3-1.1-0.5-1.7-0.4
			c-0.5-0.4-0.5-1.1-0.5-1.6c0-3.3,0-6.6,0-10c0-0.6,0-1.2,0.5-1.6C160.4,30.1,160.5,29.9,160.5,29.7z"/>
		<path class="st69" d="M81,29.7c-0.4,0-0.7,0-1.1,0c-0.4,0.3-0.7,0.3-1.1,0c0-0.1,0-0.2,0-0.3c1,0,2,0,3,0c26.2,0,52.3,0,78.5,0
			c0,0.1,0,0.2,0,0.4c-0.9,0.6-1.9,0.4-2.8,0.3c-1.2-0.1-2.4-0.1-3.6-0.1c-23.6,0-47.3,0-70.9,0C82.3,30,81.6,30.1,81,29.7z"/>
		<path class="st64" d="M81,29.7c26.4,0,52.9,0,79.3,0c0,0.1,0,0.2,0,0.2c-1,0.7-2.1,0.4-3.1,0.3c-0.4,0-0.9-0.2-1.3-0.2
			c-24.4,0-48.8,0-73.2,0c-0.5,0-1.1,0.1-1.6-0.1C81,29.9,81,29.8,81,29.7z"/>
		<path class="st70" d="M155.9,30c1.5,0,2.9,0,4.4,0c0,0.1,0.1,0.2,0.1,0.3c0,4.4,0,8.8,0,13.2c0,0.2-0.1,0.4-0.1,0.5
			c-0.4,0.3-0.8,0.3-1.2,0c-0.4-0.6-0.3-1.2-0.3-1.9c0-2.8-0.1-5.6,0-8.4c0.1-1.7,0-3.2-2.1-3.5c-0.3,0-0.6,0-0.8,0
			C155.8,30.2,155.7,30.1,155.9,30C155.8,30,155.8,30,155.9,30z"/>
		<path class="st63" d="M186.7,76.5c0.1,0.8-0.2,1.2-1,1.1c-1.2-0.1-2.4,0-3.6,0c-0.1-0.8,0.2-1.2,1-1.1
			C184.3,76.6,185.5,76.5,186.7,76.5z"/>
		<path class="st71" d="M181.4,78.7c0,0.6,0,1.3,0,1.9c0,36.4,0,72.8,0,109.2c-0.8,0.3-1.6,0.1-2.5,0.1c-24.4,0-48.8,0-73.3,0
			c0,0,0,0,0,0c-0.4-0.2-0.9-0.5-1.2-0.9c-6.5-6.6-13.2-13.1-19.7-19.7c-0.2-0.2-0.3-0.5-0.3-0.8c-0.1-1.3-0.7-2.4-0.7-3.7
			c0-0.6-0.6-0.9-1.2-0.9c-0.6-0.1-1.2,0-1.7-0.3c-0.2-0.2-0.3-0.3-0.5-0.5c-0.4-0.4-1-0.3-1.4-0.3c-6,0-12,0-18.1,0
			c-0.5,0-1-0.2-1.3,0.4c0.5,0.7,1.2,0.4,1.9,0.4c5.7,0,11.3,0,17,0c0.7,0,1.5-0.1,2.2,0.1c0.7,0.6,2.1,0.4,2,1.9
			c-0.8,0.3-1.4-0.6-2.2-0.4c-6.6,0-13.1,0-19.7,0c-0.6,0-1.3,0-1.9-0.1c-0.7-0.2-0.8-0.8-0.9-1.4c0-0.3,0-0.6,0-1
			c0-27.2,0-54.5,0-81.7c0-0.8-0.2-1.7,0.3-2.4c0.7-0.5,1.5-0.4,2.3-0.4c11.9,0,23.8,0,35.8,0c0.8,0,1.6,0.1,2.3-0.4
			c2.3-0.4,4.6-0.1,7-0.2c2.1,0,4.2-0.2,6.3,0.2c0.7,0.5,1.6,0.4,2.4,0.4c21.6,0,43.2,0,64.8,0C179.9,78.3,180.7,78.1,181.4,78.7z"
			/>
		<path class="st72" d="M181.4,76.5c0,0.4,0,0.7,0,1.1c-0.5,0.5-1.1,0.4-1.7,0.4c-22.1,0-44.3,0-66.4,0c-0.5,0-0.9,0-1.4-0.1
			c-0.5-0.3-1.1-0.4-1.7-0.4c-3.3,0-6.7,0-10,0c-0.6,0-1.2,0.1-1.7,0.4C98,78,97.5,78,97,78c-12.5,0-25,0-37.6,0
			c-0.6,0-1.3,0.1-1.8-0.4c0-0.4,0-0.7,0-1.1c0.4-0.3,0.9-0.3,1.4-0.3c9.6,0,19.1,0,28.7,0c2.8,0,5.6,0,8.4-0.1c5.2,0,10.5,0,15.7,0
			c22.4,0,44.8,0,67.2,0C179.9,76.1,180.7,75.9,181.4,76.5z"/>
		<path class="st73" d="M111.8,77.6c23.2,0,46.4,0,69.6,0c0,0.2,0,0.4,0,0.5c-0.5,0.4-1,0.3-1.6,0.3c-22.2,0-44.3,0-66.5,0
			c-0.5,0-1.1,0.1-1.6-0.3c-4.4,0-8.8,0-13.2,0c-0.5,0.4-1.1,0.3-1.7,0.3c-12.6,0-25.2,0-37.8,0c-0.5,0-1,0.1-1.4-0.3
			c0-0.2,0-0.4,0-0.6c13.7,0,27.3,0,41,0c0.3-0.3,0.8-0.3,1.2-0.3c3.6,0,7.2,0,10.9,0C111,77.3,111.5,77.3,111.8,77.6z"/>
		<path class="st74" d="M96.1,76.5c-12.8,0-25.7,0-38.5,0c0.1-0.8,0.9-0.7,1.3-0.6c11.8,0.2,23.5,0,35.3,0.1
			c0.7-0.5,1.5-0.2,2.3-0.3c5.1,0,10.2,0,15.3,0c22.5,0,45.1,0,67.6,0c0.7,0,1.4-0.2,2,0.3c0,0.2,0,0.4,0,0.5c-23.2,0-46.4,0-69.6,0
			c-0.4-0.3-0.9-0.1-1.3-0.1c-4.3,0-8.7,0-13,0C97,76.4,96.5,76.2,96.1,76.5z"/>
		<path class="st75" d="M58.4,78.7c0,28.2,0,56.4,0,84.6c0,0.5-0.4,1.3,0.5,1.6c0,0.1,0.1,0.1,0.1,0.2c-0.1,0.1-0.1,0.2-0.3,0.3
			c-0.3,0.1-0.7,0.1-0.9-0.2c0.4-0.6-0.5-1.1-0.3-1.7c0.3-0.5,0.1-1.1,0.1-1.6c0-27.1,0-54.2,0-81.4c0-0.6,0-1.1,0-1.7
			C57.9,78.5,58.1,78.6,58.4,78.7z"/>
		<path class="st76" d="M181.4,76c-23.2,0-46.4,0-69.6,0c-0.5-0.3-1-0.1-1.5-0.1c-4.2,0-8.4,0-12.6,0c-0.4,0-0.9-0.1-1.3,0.1
			c-0.7,0-1.5,0-2.2,0c0-0.2,0-0.4,0-0.5c28.6,0,57.2,0,85.8,0C180.5,75.4,181.3,75,181.4,76z"/>
		<path class="st77" d="M57.8,78.7c0,27.7,0,55.4,0,83.1c0,0.6,0.2,1.2-0.3,1.7c0-28.3,0-56.5,0-84.8C57.7,78.6,57.7,78.6,57.8,78.7
			z"/>
		<path class="st78" d="M57.8,78.7c-0.1,0-0.2,0-0.3,0c0-0.2,0-0.4,0-0.6c13.7,0,27.3,0,41,0c-0.2,0.9-1,0.5-1.5,0.5
			c-12.9,0-25.8,0-38.7,0C58.2,78.7,58,78.7,57.8,78.7z"/>
		<path class="st79" d="M57.8,165.2c0.4,0,0.7,0,1.1,0c6.8,0,13.7,0,20.5,0c0.5,0,1.2-0.4,1.5,0.5c-7.5,0-15,0-22.5,0
			c-0.3,0-0.6,0.1-0.9-0.2C57.6,165.4,57.7,165.3,57.8,165.2z"/>
		<path class="st80" d="M66.9,174.3c0.1-0.1,0.2-0.2,0.3-0.3c0-0.3,0.1-0.5,0.1-0.8c-0.5,0-0.6,0.8-1.2,0.5c0,0,0,0,0,0
			c-1.4-1,0-1.5,0.5-2.3c-1.3-0.3-2.3-0.2-3.3,0.6c0,0,0,0,0,0c-0.1-0.3-0.4-0.5-0.5-0.9c0.1-0.7-0.3-1.4,0.4-2
			c0.3-0.2-0.1-0.6-0.3-0.8c-0.4-0.4-0.7-0.8-1.4-1.5c6.7,0,13.1,0,19.5,0c0.1,0.1,0.1,0.1,0.2,0.2c0.1,0.2,0.2,0.4,0.2,0.7
			c0,5.8,0.1,11.7-0.1,17.5c-0.4,0.8-0.6,1.9-1.9,1.9c-0.5-0.1-0.8-0.4-0.9-0.8c-0.1-0.5,0-1,0.4-1.4c-0.6-0.1-1,0.2-1.4,0.3
			c-0.1,0-0.3,0.1-0.4,0c-0.3-0.1-0.6-0.1-0.5-0.5c-0.2-0.2-0.4-0.4-0.6-0.6c0.2-0.7-1.4-1.1-0.1-1.9c-0.5,0.1-0.5,0.7-1,0.5
			c-0.2,0-0.4,0-0.5,0c0-0.1,0-0.2,0-0.3c-0.2-0.3-0.3-0.7-0.4-1.1c0-0.1,0-0.3,0.1-0.4c0.2-0.2,0.6-0.3,0.5-0.7
			c-0.2,0.4-0.4,0.5-0.8,0.5c-0.6-0.1-1-0.5-1.5-0.8c-0.2,0-0.4-0.1-0.5-0.3c0.2-0.7-1.4-1.1-0.1-1.9c-0.5,0.1-0.5,0.7-1,0.5
			c-0.2,0-0.4,0-0.5,0c0-0.1,0-0.2,0-0.3c-0.2-0.3-0.3-0.7-0.4-1.1c0-0.1,0-0.2,0.1-0.4c0.2-0.2,0.6-0.3,0.4-0.8
			c-0.2,0.5-0.5,0.6-0.8,0.5c-0.7-0.3-1.3-0.6-2-0.8l0,0C67.1,175.2,67,174.7,66.9,174.3z"/>
		<path class="st81" d="M58,166.9c-0.1,0-0.2,0-0.2-0.1c0.3-0.9,1-0.8,1.7-0.8c7.1,0,14.3,0,21.4,0c0.1,0.2,0,0.3-0.2,0.4
			c-6.8,0-13.6,0-20.4,0c-0.5,0-1-0.1-1.5,0.1c0,0.2,0,0.4,0,0.6C58.6,167.3,58.3,166.9,58,166.9z"/>
		<path class="st82" d="M81,166.3c0-0.1,0-0.2,0-0.3c0.3,0,0.5,0,0.8,0c0.1,0.1,0.1,0.1,0.2,0.2c0.2,0.4,0.2,0.8,0.2,1.2
			c0,6.8,0,13.7,0,20.5c0,0.3,0,0.6-0.1,0.8c-0.1,0.2-0.2,0.3-0.3,0.4c-0.3,0-0.5-0.2-0.6-0.5c-0.2-1.3,0-2.6,0-4c0-5.5,0-11,0-16.4
			c0-0.5,0.1-1-0.3-1.4c0,0,0,0,0,0c0-0.1,0-0.2,0-0.3C80.9,166.5,80.8,166.4,81,166.3C80.9,166.3,80.9,166.3,81,166.3z"/>
		<path class="st83" d="M81,166.3c0,0.1,0,0.2,0,0.3c-7.3,0-14.7,0-22,0c0.4-0.5,0.9-0.3,1.4-0.3C67.2,166.3,74.1,166.3,81,166.3z"
			/>
		<path class="st84" d="M58,166.9c0.3,0.1,0.6,0.2,0.9,0.3c0,0.2,0,0.4,0,0.6C58.6,167.4,58.3,167.1,58,166.9z"/>
		<path class="st84" d="M62.8,171.2c0.3,0.2,0.6,0.5,0.5,0.9c-0.4-0.2-0.7-0.5-0.9-0.8C62.6,171.2,62.7,171.2,62.8,171.2z"/>
		<path class="st0" d="M74.4,184.2c0.2-0.1,0.4-0.2,0.6-0.3c0,0,0,0,0,0c0.4,1.2,1.1,1.8,2.3,2.1c0.3,0.1,0.5,0.4,0.7,0.7
			c0,0.6,0.7,1,0.3,1.7c-0.2,0-0.4,0-0.6,0c-0.5,0-0.5-0.8-1.1-0.6c0.1-0.4,0.6-0.5,0.6-1C74.8,186.6,74.9,185.8,74.4,184.2z"/>
		<path class="st38" d="M78.2,188.3c-0.2-0.6-0.8-1-0.5-1.7c1,0.1,1.5,0.9,1.8,1.7c0,0.2,0,0.4-0.2,0.6
			C78.9,188.7,78.6,188.5,78.2,188.3z"/>
		<path class="st85" d="M79.3,188.9c0-0.2,0-0.4,0-0.6c0.4-0.1,0.7,0.2,1,0.4c0.3,0.4,0.8,0.6,0.7,1.2c-0.7,0.4-1-0.6-1.7-0.5
			C79.3,189.2,79.3,189,79.3,188.9z"/>
		<path class="st86" d="M80.9,165.7c-0.4-0.4-1-0.2-1.4-0.2c-6.3,0-12.7,0-19,0c-0.5,0-1.1,0.2-1.6-0.3c0,0,0,0,0,0
			c0.5-0.2,1-0.1,1.5-0.1c6.4,0,12.7,0,19.1,0c0.5,0,1,0.1,1.5-0.1c0.6,0.3,1.1,0.6,1.7,0.8c0.2,0.2,0.2,0.4,0,0.6
			c-0.4,0.2-0.7,0-0.9-0.3c0,0,0,0,0,0C81.6,165.7,81.2,165.8,80.9,165.7z"/>
		<path class="st87" d="M67.2,175.6c0.8-0.2,1.5,0.1,2.2,0.5c0.2,0.1,0.3,0.3,0.3,0.6c0,0.1,0,0.2,0,0.3c-0.1,0.1-0.1,0.3-0.3,0.3
			c-0.6-0.5-1.3-0.9-1.9-1.4C67.4,175.8,67.3,175.7,67.2,175.6z"/>
		<path class="st88" d="M66.9,174.3c0.4,0.4,0.5,0.9,0.3,1.4c-0.1,0-0.2,0-0.3,0C67.1,175.2,66.4,174.7,66.9,174.3z"/>
		<path class="st89" d="M69.4,177.3c0.1-0.1,0.2-0.2,0.3-0.3c0.2,0.3,0.3,0.7,0.3,1.1C69.8,177.8,69.6,177.6,69.4,177.3z"/>
		<path class="st87" d="M74.1,181.2c0,0.1,0,0.2,0,0.3c-0.1,0.1-0.1,0.3-0.3,0.3c-0.6-0.5-1.1-0.9-1.7-1.4c0-0.1,0-0.2,0-0.3
			c0.7-0.2,1.1,0.4,1.7,0.5C74,180.8,74.1,180.9,74.1,181.2z"/>
		<path class="st89" d="M73.8,181.7c0.1-0.1,0.2-0.2,0.3-0.3c0.2,0.3,0.3,0.7,0.3,1.1C74.2,182.3,74,182,73.8,181.7z"/>
		<path class="st28" d="M77.1,186.1c-1.5,0.1-2.4-0.8-2.2-2.2c0.5,0.4,0.9,0.7,1.4,1.1c0.3,0.2,0.7,0.4,0.9,0.7
			C77.2,185.9,77.2,186,77.1,186.1z"/>
		<path class="st89" d="M74.9,182.8c0.2-0.2,0.2-0.6,0.5-0.8c0.3-0.3,0.7-0.5,1-0.2c0.4,0.4,0,0.6-0.4,0.7c-0.5,0.2-0.4,0.5-0.1,0.8
			c0.2,0.2,0.5,0.5,0.1,0.8C75.8,183.6,75,183.5,74.9,182.8z"/>
		<path class="st90" d="M77.1,185.9c-0.4-0.2-0.6-0.5-0.8-0.9c0.1-0.1,0.2-0.2,0.3-0.3c0.1,0.2,0.3,0.3,0.5,0.3
			C77.3,185.3,77.4,185.6,77.1,185.9z"/>
		<path class="st89" d="M70.5,178.4c0.2-0.2,0.2-0.6,0.5-0.8c0.3-0.3,0.7-0.5,1-0.2c0.4,0.4,0,0.6-0.4,0.7c-0.5,0.2-0.4,0.5-0.1,0.8
			c0.2,0.2,0.5,0.5,0.1,0.8C71.4,179.2,70.6,179.1,70.5,178.4z"/>
		<path class="st26" d="M66.1,173.7c0.4-0.4,0.9-0.8,1.5-1.4c0.2,0.8,0.3,1.3-0.4,1.7C66.9,173.8,66.3,174.5,66.1,173.7z"/>
		<path class="st91" d="M79.9,45.1c0.4,0,1-0.2,1.1,0.5c0,0.2,0,0.4,0,0.6C80.1,46.3,79.7,46,79.9,45.1z"/>
		<path class="st92" d="M67.2,45.7c0.3,0,0.6,0,0.8,0c-0.1,1.6-0.2,3.2-0.3,4.8c0,2.1,0,4.1,0,6.2c0,0.2,0,0.4,0,0.6
			c0.5,0.4,1,0.3,1.6,0.3c3.3,0,6.7,0,10,0c0.5,0,1.1-0.1,1.6,0.3l0,0c0.2,0.2,0.2,0.5-0.1,0.7c-0.6,0.4-1.2,0.2-1.9,0.3
			c-3.6,0-7.1-0.1-10.7,0.1c-0.1,0.1-0.3,0.1-0.4,0.2c-0.2,0.1-0.3,0-0.4-0.1c-0.4-0.4-0.3-0.9-0.3-1.4
			C67.2,53.5,67.2,49.6,67.2,45.7z"/>
		<path class="st93" d="M82.6,45.4c0,0.1,0,0.2,0,0.3c0.6,0.7,0.3,1.5,0.4,2.2c0,2.8,0.1,5.5-0.1,8.3c-0.4,0.7,0,1.4,0,2.1
			c0,0.5-0.2,0.9-0.6,1.3c-0.1,0.1-0.2,0.2-0.3,0.2c-0.2,0.1-0.4,0-0.6-0.1c-0.1-0.2-0.2-0.4-0.1-0.6c0-0.8,0.7-1.6,0.3-2.4
			c0-3.1,0-6.2,0-9.3c0.2-1,0.9-2.1-0.6-2.8c-0.1-0.1-0.1-0.2,0-0.3c0.2-0.1,0.4-0.1,0.6-0.1C82.3,44.2,82.3,44.9,82.6,45.4z"/>
		<path class="st94" d="M81,57.8c-4,0-7.9,0-11.9,0c-0.5,0-1.2,0.3-1.3-0.5c4,0,7.9,0,11.9,0C80.1,57.2,80.8,56.9,81,57.8z"/>
		<path class="st95" d="M81.5,56.7c0.4,0.8,0.3,1.7,0,2.5c-0.4,0.4-1,0.4-1.5,0.4c-3.5,0-7.1,0-10.6,0c-0.6,0-1.3,0.3-1.6-0.6l0,0
			c0.5-0.4,1-0.3,1.6-0.3c3.3,0,6.7,0,10,0c0.5,0,1.1,0.1,1.6-0.3c0-0.2,0-0.4,0-0.5C81.7,57.7,81.4,57.1,81.5,56.7z"/>
		<path class="st96" d="M68.9,44.3c-0.2,0.1-0.4,0.1-0.5,0.2c-0.6,0-1.1,0-1.7,0.1c-0.1,0.1-0.2,0.3-0.2,0.4c-0.1,4.7,0,9.3,0,14
			c0,0.2,0.1,0.4,0.3,0.6c0.1,0.1,0.1,0.3,0,0.4c-0.2,0.1-0.4,0.2-0.7,0.1c-0.2-0.1-0.3-0.1-0.4-0.3c-0.5-0.6-0.4-1.4-0.4-2.1
			c0-3.5,0-7.1,0-10.6c0-0.7,0-1.4-0.4-2c-0.4-0.5-0.8-1.1-0.3-1.7c0.5-0.5,1.1-0.2,1.7,0.1c0.8,0.2,1.8-0.1,2.6,0.3
			c0.1,0.1,0.1,0.1,0.2,0.2C68.8,44.1,68.8,44.2,68.9,44.3z"/>
		<path class="st97" d="M67.7,58.9c0.4,0.4,0.9,0.3,1.4,0.3c4.1,0,8.2,0,12.3,0c0,0.2,0,0.4,0,0.5c-0.3,0.4-0.7,0.4-1.1,0.4
			c-4.1,0-8.1,0-12.2,0c-0.3,0-0.5-0.1-0.8-0.2c-0.2-0.1-0.2-0.3-0.2-0.5c0.1-0.2,0.2-0.4,0.3-0.5C67.6,58.9,67.7,58.9,67.7,58.9z"
			/>
		<path class="st98" d="M67.2,59.4c0,0.1,0,0.2,0,0.2c-0.2,0.2-0.4,0.2-0.6,0.1c-0.1-0.1-0.2-0.2-0.3-0.3c-0.2-4.2,0-8.5-0.1-12.7
			c0-0.7-0.2-1.5,0.1-2.2c0.1,0,0.2,0,0.3,0c0,4.6,0,9.1,0,13.7C66.6,58.7,66.4,59.3,67.2,59.4z"/>
		<path class="st99" d="M79.9,30.2c0.7,0.1,0.6,0.6,0.6,1c0,1.1,0,2.2,0,3.4c-0.3,0.3-0.3,0.8-0.3,1.2c0,2.2,0,4.3,0,6.5
			c0,0.4,0,0.8,0.3,1.2c0,0.1,0,0.2,0,0.3c0.1,0.1,0.1,0.3,0,0.4c-0.8,0.4-1.2-0.1-1.6-0.7c0-2.9,0-5.9,0-8.8
			c0.5-1.1,0.1-2.3,0.3-3.5C79.1,30.7,78.9,30,79.9,30.2z"/>
		<path class="st100" d="M79.9,30.2c-0.7,0.1-0.5,0.6-0.5,1c0,0.8,0,1.5,0,2.3c0,0.4,0.1,0.9-0.5,1.1c0-1.7,0-3.3,0-5
			c0.4,0,0.7,0,1.1,0C79.9,29.9,79.9,30.1,79.9,30.2z"/>
		<path class="st101" d="M78.8,43.4c0.5,0.2,0.9,0.8,1.6,0.6c0.4-0.1,0.9-0.5,1.1,0.3c-0.2,0-0.4,0-0.5,0c-0.7,0.2-1.5,0.2-2.2,0
			C78.8,44,78.8,43.7,78.8,43.4z"/>
		<path class="st102" d="M78.8,44.3c0.7,0,1.5,0,2.2,0c0,0.1,0,0.2,0,0.2c-0.7,0-1.5,0-2.2,0C78.8,44.5,78.8,44.4,78.8,44.3z"/>
		<path class="st103" d="M68.9,30.2c0.2,0,0.4,0,0.5,0c0,4.1,0,8.3,0,12.4c0,0.5,0.3,1.2-0.5,1.3c0,0,0,0,0,0
			c-0.3-0.3-0.3-0.7-0.3-1.1c0-3.9,0-7.8,0-11.6c0-0.3,0.1-0.5,0.2-0.8C68.7,30.4,68.8,30.3,68.9,30.2z"/>
		<path class="st104" d="M85.1,169.3c3.1,3,6.1,6,9.2,9c3.8,3.8,7.7,7.7,11.5,11.6c-7.7,0-15.4,0-23.1,0c-0.2-0.3-0.3-0.5-0.1-0.9
			c0.2-0.3,0.4-0.4,0.7-0.5c0.2-0.1,0.5-0.1,0.7-0.2c0.7-0.6,0.5-1.3,0.5-2c0-5.1,0-10.1,0-15.2C84.4,170.5,84.1,169.6,85.1,169.3z"
			/>
		<path class="st18" d="M81,189.9c-0.3-0.4-0.6-0.7-0.8-1.1c-0.1-0.2,0-0.3,0.2-0.4c0.2,0,0.5,0,0.7,0.1c0.2,0,0.3,0.1,0.4,0.3
			c0.1,0.1,0.2,0.2,0.3,0.3c0.2,0.3,0.2,0.6,0,0.8C81.5,190,81.2,189.9,81,189.9z"/>
		<path class="st105" d="M81.8,190c0-0.3,0-0.6,0-0.8c0,0,0,0,0,0c0.1-0.1,0.2-0.3,0.3-0.4c0.2-0.1,0.4,0,0.5,0.1
			c0.1,0.1,0.1,0.2-0.1,0.3c0,0.3,0,0.6,0,0.8C82.3,190,82.1,190,81.8,190z"/>
		<path class="st58" d="M66.1,44c-0.2-0.1-0.4-0.2-0.6-0.3c-0.3-0.3-0.7-0.3-0.9,0c-0.2,0.3-0.1,0.6,0.2,0.9
			c0.9,0.6,0.8,1.5,0.8,2.5c0,3.8,0,7.6,0,11.4c0,0.6,0,1.2,0.6,1.6c-0.2,0.2-0.6,0.1-0.9,0.4c0.3-0.1,0.7,0,0.9-0.4
			c0.2,0,0.4,0,0.5,0c0.6-0.3,0.9,0.2,1.3,0.4c0.1,0.1,0.3,0.2,0.4,0.2c3.5,0.2,7,0,10.5,0.1c0.7,0,1.4-0.1,2,0.2
			c0.5,0.5,1.1,0.9,1.8,1c1,0.2,1.7,0.9,1.9,1.9c0.3,1.4,1,2.1,2.4,2.4c1.1,0.2,1.8,0.9,2,2c0.3,1.4,1.1,2.1,2.4,2.4
			c1.7,0.4,2.4,1.9,1.7,3.6c-13.2,0-26.4,0-39.7,0c-0.4-0.4-0.3-1-0.3-1.5c0-13.8,0-27.7,0-41.5c0-0.4,0-0.8,0.1-1.2
			c0.3-0.5,0.8-0.2,1.2-0.3c4.3,0.2,8.6,0.1,12.9,0.1c0.1,0,0.3-0.1,0.4-0.2c0.4,0,1-0.2,1.1,0.5c0,0,0,0,0,0
			c-0.4,0.5-0.3,1-0.3,1.6c0,3.3,0,6.6,0,10c0,1.8,0,1.8-1.7,2C66.6,43.8,66.3,43.8,66.1,44z"/>
		<path class="st106" d="M93.1,74.3c0-2.6-0.2-2.7-2.6-3.4c-0.7-0.2-1.7-0.9-1.8-2c-0.1-1.5-0.9-2.2-2.4-2.4c-0.6-0.1-2-1.4-2-2
			c-0.1-1.5-0.9-2.3-2.4-2.3c-0.9,0-1-0.4-0.9-1.1c-0.5-0.4-1-0.3-1.6-0.3c-3.3,0-6.7,0-10,0c-0.5,0-1.1,0.1-1.6-0.3l0,0
			c-0.3-0.8,0.3-0.7,0.8-0.7c1.7,0,3.5,0,5.2,0c2.6,0,5.3,0,7.9,0c0.8,0,1.2,0.6,1.7,1c3.6,3.8,7.5,7.4,11.1,11.2
			c0.3,0.3,0.6,0.5,0.7,1c-0.2,0.4-0.6,0.7-0.8,1.1c0,0-0.1,0.1-0.1,0.1C93.8,74.3,93.4,74.3,93.1,74.3z"/>
		<path class="st107" d="M53.4,30c0,14.8,0,29.6,0,44.3c-0.9-0.2-0.5-1-0.5-1.5c0-13.7,0-27.3,0-41c0-0.7,0.2-1.4-0.5-1.9
			C52.7,29.8,53.1,29.8,53.4,30z"/>
		<path class="st64" d="M53.4,30c-0.4,0-0.7,0-1.1,0c0-0.1,0-0.2,0-0.3c5.1,0,10.3,0,15.4,0c0,0.1,0,0.2,0,0.3
			c-1.4,0.3-2.9,0.1-4.4,0.1c-3,0-5.9,0.2-8.9-0.1C54.2,30,53.8,30,53.4,30z"/>
		<path class="st106" d="M96.4,74.8c-0.7,0-1.5,0-2.2,0c0-0.2,0-0.3,0-0.5c0,0,0,0,0,0c0.4-0.3,0.8-0.6,1.2-0.9
			C96,73.6,96.6,73.9,96.4,74.8z"/>
		<path class="st59" d="M85.4,48.4c2.4,2,4.5,4.4,6.7,6.6c2.7,2.7,5.4,5.4,8.1,8.1c3.7,3.7,7.5,7.3,11,11.2c-1,0.6-1.5-0.1-2.1-0.7
			c-1-1-1-1-1.5,0.2c-0.2,0.6-0.6,0.7-1.2,0.7c-2.7,0-5.4,0-8.1,0c-0.9,0-1.2-0.5-1.3-1.2c-0.1-1.3-0.7-1.9-2-2
			c-1.2-0.1-2.3-1.2-2.4-2.5c-0.1-1.2-0.7-1.8-1.9-1.9c-1.3-0.2-2.4-1.2-2.5-2.5c-0.1-1.2-0.7-1.9-1.9-1.9c-0.8,0-1.4-0.3-1.4-1.2
			c0-0.8-0.9-1.2-1.1-1.9c-0.1-0.5-0.1-1.1,0.2-1.6c0.1-0.2,0.3-0.3,0.6-0.2c0.2,0.1,0.3,0.3,0.3,0.6c0.1-0.6-0.1-1.2,0-1.7
			c0-1,0-2,0-3c0-1.9,0-1.9,1.9-1.9c-0.1-0.8-0.6-1.2-1.1-1.6C85.2,49.7,84.8,49.2,85.4,48.4z"/>
		<path class="st108" d="M84.3,59.4c0.7,0.6,1.3,1.2,1.2,2.3c-0.1,0.6,0.6,0.5,1,0.5c1.7,0.1,2.2,0.5,2.3,2.3c0,0.8,1.4,2.1,2.2,2.1
			c1.6,0.1,2.1,0.6,2.2,2.2c0,0.9,1.3,2.1,2.2,2.2c1.6,0.1,2.2,0.6,2.2,2.2c0,1,0.4,1.1,1.2,1.1c2.5,0,5,0,7.4,0
			c0.9,0,1.4-0.2,1.3-1.2c0-0.3-0.1-0.8,0.3-0.9c0.5-0.2,0.8,0.1,1.1,0.4c0.7,0.7,1.1,1.9,2.4,1.7c0.3,0,0.5,0.2,0.6,0.5
			c-5.1,0-10.3,0-15.4,0c-0.2-0.6-0.6-1-1.1-1.3c-0.2,0.1-0.3,0-0.3-0.3c-3.2-3.2-6.4-6.4-9.6-9.6c-0.8-0.8-1.5-1.7-2.2-2.5
			c-0.1-0.5-0.9-0.8-0.4-1.5c-0.2,0-0.5,0-0.7-0.2c0.3-0.3,0.7-0.6,0.5-1.1c0.5-0.4,0.1-1.1,0.4-1.6c0.1-0.2,0.3-0.2,0.5-0.2
			c0.1,0.1,0.2,0.1,0.3,0.3c0.1,0.3,0.2,0.7,0.1,1C84,58.3,83.8,58.9,84.3,59.4z"/>
		<path class="st109" d="M156.7,30.2c2.5,0,2.5,0,2.5,2.4c0,3.8,0,7.6,0,11.3c-0.5,0.4-0.9,0.4-1.4,0c-1.4-0.8-1.1-2.1-1.1-3.4
			C156.7,37.2,156.7,33.7,156.7,30.2z"/>
		<path class="st110" d="M155.9,30c0,0.1,0,0.2,0,0.3c-24.4,0-48.8,0-73.2,0c-0.6,0-1.2,0.2-1.7-0.3C105.9,30,130.9,30,155.9,30z"/>
		<path class="st111" d="M84.8,47.6c0,0.1,0,0.2,0,0.3c0.4,1,0.5,2.1,0.4,3.1c-0.2,1.7-0.1,3.5-0.1,5.2c0,0.2,0,0.3-0.1,0.5
			c-0.1,0.2-0.4,0.3-0.6,0.3c-0.2,0-0.5-0.1-0.6-0.3l0,0c-0.2-0.2-0.4-0.5-0.4-0.9c-0.1-2.4-0.1-4.8,0-7.2c0-0.5,0.2-0.9,0.6-1.2
			C84.3,47.1,84.6,47.2,84.8,47.6z"/>
		<path class="st112" d="M84.8,56.7c0-2.9,0-5.9,0-8.8c0.4,0,0.5,0.2,0.6,0.5c0,0.7,0,1.3,0.9,1.6c0.7,0.2,0.8,1,1.2,1.6
			c0.2,0.3,0,0.7-0.5,0.7c-0.5,0-1,0-1.6-0.6c0,1.9,0,3.5,0,5C85.2,56.8,85,56.8,84.8,56.7z"/>
		<path class="st113" d="M170.2,60.5c0,0.4-0.3,0.6-0.7,0.5c-4.1,0-8.2,0-12.3,0c0-0.2,0-0.4,0-0.5
			C161.5,60.5,165.9,60.5,170.2,60.5L170.2,60.5z"/>
		<path class="st114" d="M84.8,47.6c-0.2-0.1-0.4-0.2-0.5-0.3c-0.3,0-0.5-0.3-0.8-0.5c-0.3-0.4-0.8-0.6-0.6-1.2
			c0.3-0.5,0.6-0.9,0.8-1.4c0.2-0.4,0.2-0.9,0.8-0.7c0.5,0.1,0.4,0.7,0.4,1C84.8,45.6,84.8,46.6,84.8,47.6z"/>
		<path class="st115" d="M172.4,59.7c0.2,0,0.4,0.1,0.6,0.3c-0.1,0.1-0.2,0.1-0.3,0c-0.5,0.1-1.1-0.2-1.4,0.5
			c-0.2,0.1-0.4,0.2-0.5,0c-0.2,0-0.4,0-0.5,0c0,0,0,0,0,0c-0.2-0.8-0.9-0.5-1.3-0.5c-4,0-7.9,0-11.9,0c-0.2-0.2-0.2-0.4,0-0.6
			c0.1-0.1,0.3-0.1,0.4-0.1c0.4,0,0.8,0,1.2,0c4,0,8,0,12,0C171.2,59.3,171.8,59.2,172.4,59.7z"/>
		<path class="st116" d="M80.4,43.5c-0.5-0.1-0.6-0.4-0.6-0.8c0-2.4,0-4.8,0-7.2c0-0.4,0.1-0.7,0.6-0.8
			C80.4,37.6,80.4,40.5,80.4,43.5z"/>
		<path class="st117" d="M157,59.4c0,0.2,0,0.4,0,0.6c-0.7-0.1-0.5-0.7-0.6-1.1c0.4-0.9-0.1-1.7,0-2.6c0-3,0.1-5.9-0.1-8.9
			c0.1-0.5-0.1-1.1,0.7-1.2c0.5,0.5,0.3,1.2,0.4,1.8c0,2.9,0,5.8,0,8.7C157.2,57.6,157.6,58.6,157,59.4z"/>
		<path class="st118" d="M156.4,57.8c-0.3-0.2-0.5-0.6-0.5-0.9c0.4-2.6,0.1-5.2,0.2-7.8c0-1.1-0.6-2.2,0-3.4c0.2-0.1,0.3,0,0.4,0.1
			c0.1,0.6-0.1,1.2,0,1.7c0,3,0,5.9,0,8.9C156.5,56.9,156.7,57.4,156.4,57.8z"/>
		<path class="st119" d="M156.4,57.8c0-3.5,0-7,0-10.5c0.1-0.1,0.2-0.1,0.3,0c0,3.4,0,6.8,0,10.1c0,0.5,0.2,1-0.3,1.4
			C156.4,58.5,156.4,58.1,156.4,57.8z"/>
		<path class="st120" d="M81.5,44.3c-0.3-0.4-0.7-0.2-1.1-0.3c0-0.1,0-0.2,0-0.3c0.1,0,0.2,0,0.3,0c1.9-0.4,1.9-0.4,1.9,1.7
			C82.2,45,81.9,44.7,81.5,44.3z"/>
		<path class="st121" d="M157.8,44c0.5,0,0.9,0,1.4,0c0.4,0,0.7,0,1.1,0c0,0.2,0,0.3,0,0.5c-0.7,0.7-1.6,0.3-2.5,0.4
			c-0.2,0-0.3,0-0.5-0.1c-0.1,0-0.1-0.1-0.2-0.1c-0.1-0.1-0.1-0.1-0.2-0.2C157,44,157.4,44,157.8,44z"/>
		<path class="st122" d="M82.9,45.7c0.3,0.4,0.6,0.7,0.8,1.1c-0.2,0.5-0.1,1.4-1.1,1.1c0-0.7,0-1.5,0-2.2
			C82.7,45.7,82.8,45.7,82.9,45.7z"/>
		<path class="st121" d="M156.7,47.3c-0.1,0-0.2,0-0.3,0c0-0.5,0-1.1,0-1.6c-0.3-0.4-0.3-0.7,0-1.1c0.2,0,0.4,0,0.5,0c0,0,0,0,0,0
			c0.4,0.6,0.5,1.1,0,1.6C156.6,46.5,156.7,46.9,156.7,47.3z"/>
		<path class="st113" d="M170.7,60.5c0.2,0,0.4,0,0.5,0c0.3,0,0.7-0.1,1.1,0.4C171.7,61,171.1,61.4,170.7,60.5z"/>
		<path class="st123" d="M172.7,60c0.1,0,0.2,0,0.3,0c0.3,0.3,0.7,0.6,0.8,1.1C173,61.2,172.8,60.6,172.7,60z"/>
		<path class="st124" d="M156.4,44.6c0,0.4,0,0.7,0,1.1c-0.1,0-0.2,0-0.3,0C155.8,45.2,155.6,44.8,156.4,44.6z"/>
		<path class="st125" d="M160.3,47.3c0,2.7,0,5.4,0,8.1c0,0.9,0.2,1.3,1.2,1.3c2.7-0.1,5.4,0,8.1-0.1c0.1,0,0.1,0.1,0.2,0.1
			c0.4,0.7,0.9,0.5,1.5,0.3c0.2,0,0.4,0,0.6,0.1c0.1,0.1,0.2,0.2,0.2,0.4c0.1,0.4,0.1,0.8,0,1.1c-0.8,1-1.9,0.6-2.9,0.5
			c-1.5-0.6-3.1-0.6-4.6,0c-1.8,0.3-3.5,0.1-5.3,0.1c-0.9,0-1.6-0.3-1.3-1.4c1.4-1.2,1.5-2.8,1.5-4.5c-0.1-1.5,0-3-0.2-4.5
			c-0.2,2.1-0.1,4.2-0.2,6.3c0,0.6,0.2,1.5-0.8,1.6c-0.2-0.1-0.3-0.2-0.4-0.3c-0.4-2.8-0.1-5.7-0.2-8.5c0-0.5,0-1,0-1.5
			c0-1.1,0.4-1.7,1.6-1.6c0.7,0.1,0.7,0.6,0.6,1.1C159.8,46.5,159.9,46.9,160.3,47.3z"/>
		<path class="st126" d="M169.1,58.9c0.9-0.3,2,0.6,2.8-0.5c0.4-0.4,0.4-0.7,0-1.1l0,0c-0.3-0.4-0.4-0.8-0.4-1.3
			c0-2.7-0.1-5.4,0.1-8c0.1-0.8,0.2-1.6-0.5-2.3c-0.5-0.2-1-0.1-1.4-0.5c0-0.2,0-0.4,0-0.6c0.7,0,1.5,0,2.2,0
			c0.6,0.1,0.8,0.5,0.8,1.1c0,4.4,0,8.8,0,13.2c0,0.3-0.2,0.6-0.3,0.9c-4.8,0-9.5,0-14.3,0c-0.1-0.2,0-0.3,0.1-0.4
			c3.4,0.1,6.9-0.2,10.3,0.2c0,0,0,0,0-0.2c-3.1,0-6.2,0-9.2,0c-0.2-0.1-0.3-0.2-0.2-0.4c1.8,0,3.7,0,5.5,0
			C166.1,58.4,167.6,58.4,169.1,58.9z"/>
		<path class="st127" d="M162.5,36.8c0-1.8,0-3.6,0-5.4c0-0.4-0.2-1,0.4-1.1c0.6-0.1,0.5,0.5,0.7,0.8c0.5,0.5,0.4,1.2,0.4,1.8
			c0,2.7,0,5.3,0,8c0,0.6,0,1.3-0.5,1.8c-0.2,0.3-0.1,0.9-0.7,0.8c-0.7-0.1-0.4-0.7-0.5-1.1C162.5,40.5,162.5,38.6,162.5,36.8z"/>
		<path class="st128" d="M169.6,45.1c0.6,0,1.1,0,1.7,0c0.1,0.1,0.3,0.2,0.3,0.3c-0.1,3.7,0.3,7.4-0.1,11c0,0.1-0.1,0.2-0.2,0.4
			c-0.6,0.3-1.1,0.3-1.7-0.1c0,0,0,0,0,0C169.6,52.8,169.6,49,169.6,45.1z"/>
		<path class="st129" d="M159.2,58.9c0,0.1,0,0.2,0,0.3c-0.6,0.2-1.2,0.3-1.8-0.1c-0.3-0.8-0.1-1.7-0.1-2.6c0-3.5,0-6.9,0-10.4
			c0-0.5-0.1-1.1,0.3-1.6c0.9,0,1.8-0.1,2.7-0.1c0,0.2,0,0.4,0,0.6c-0.2,0.2-0.4,0.2-0.5,0c-1.4-0.3-1.9,0.3-1.7,1.7
			c0.1,0.3,0,0.7,0,1.1c-0.2,2.9-0.2,5.9,0,8.8l0,0c0.3,0.4,0.3,0.7,0,1.1C157.9,58.6,158.3,59,159.2,58.9z"/>
		<path class="st68" d="M161.5,27.7c0-2.3,0-4.6,0-7c0.1,0,0.1,0,0.2,0c0,2.3,0,4.6,0,7C161.6,27.7,161.6,27.7,161.5,27.7z"/>
		<path class="st130" d="M159.7,45.1c0.2,0,0.4,0,0.5,0c0,0.7,0,1.5,0,2.2C158.6,47,159.9,45.8,159.7,45.1z"/>
		<path class="st58" d="M186.7,30.2c0,6.7,0,13.5,0,20.2c0,0.7,0.4,1.5-0.6,1.9c-0.3,0.1-0.1,0.5,0.1,0.7c0.7,0.6,0.7,1.5,0.4,2.2
			c-0.2,0.6-1,0.4-1.5,0.3c-0.8-0.2-1.6-0.8-1.6-1.6c-0.2-1.8-1-2.5-2.8-2.8c-0.9-0.1-1.7-0.9-1.7-2c0-1.1-1.2-2.2-2.3-2.3
			c-1.1-0.1-2.1-1-2.1-2.2c0-0.9-0.3-1.2-1.1-1.1c-0.1-0.1-0.1-0.1-0.2-0.2c-0.2-0.5-0.2-1-0.2-1.5c0-3.3,0-6.7,0-10
			c0-0.5-0.1-1.1,0.3-1.6C177.9,30.1,182.3,30,186.7,30.2z"/>
		<path class="st131" d="M186.7,30.2c-4.4,0-8.8,0-13.2,0c-0.3,0.3-0.3,0.8-0.3,1.2c0,3.6,0,7.2,0,10.9c0,0.4,0,0.8,0.3,1.2
			c0,0,0,0,0,0c-0.1,0.7-0.7,0.5-1.1,0.5c0,0,0,0,0,0c-0.5-0.3-0.8-0.7-0.8-1.3c0-3.9,0-7.8,0-11.7c0-0.3,0.1-0.5,0.3-0.8
			c0-0.1,0-0.2,0-0.3c5,0,9.9,0,14.9,0C186.7,30.1,186.7,30.2,186.7,30.2z"/>
		<path class="st132" d="M171.8,30.2c0,3.8,0,7.6,0,11.3c0,0.9,0,1.7,0.6,2.4c-0.4,0-0.7,0-1.1,0c0-4.1,0-8.3,0-12.4
			C171.3,31.1,171,30.4,171.8,30.2z"/>
		<path class="st133" d="M170.2,30.2c0.7,0.1,0.5,0.6,0.5,1.1c0,3.7,0,7.4,0,11.1c0,0.4,0.1,1-0.5,1.1
			C170.2,39.1,170.2,34.6,170.2,30.2z"/>
		<path class="st78" d="M111.8,78.2c23.2,0,46.4,0,69.6,0c0,0.2,0,0.4,0,0.6c-22.7,0-45.3,0-68,0C112.9,78.7,112.1,79.1,111.8,78.2z
			"/>
		<path class="st134" d="M81,163c0,0.2,0,0.4,0,0.6c0.2,0.2,0.1,0.4,0,0.6c-6.9,0-13.8,0-20.7,0c-0.8,0-1.5,0-1.3-1.1
			c0.4-0.4,1-0.3,1.5-0.3c6.4,0,12.7,0,19.1,0C80,162.7,80.5,162.6,81,163z"/>
		<path class="st135" d="M85.1,169.3c-0.5,0.5-0.3,1-0.3,1.6c0,5.5,0,11.1,0,16.6c0,0.8,0,1.5-1.1,1.4c-0.3-0.4-0.4-0.8-0.4-1.3
			c0-6.3,0-12.6,0-18.8c0-0.1,0-0.3,0.1-0.4c0.8-1.2,1,0.1,1.4,0.4C84.9,168.9,85,169.1,85.1,169.3z"/>
		<path class="st136" d="M81,163c-7.3,0-14.7,0-22,0c0.1-0.7,0.6-0.5,1.1-0.5c6.6,0,13.3,0,19.9,0C80.3,162.4,80.9,162.3,81,163z"/>
		<path class="st137" d="M84.8,168.7c-0.4-0.3-0.7-0.6-1.1-0.8c-0.3,0-0.5-0.2-0.7-0.4c-0.2-0.2-0.4-0.4-0.5-0.7
			c0-0.2,0-0.3,0.1-0.5c0-0.2,0-0.4,0-0.6c0.1-1.2-1.4-0.8-1.7-1.7c0-0.2,0-0.4,0-0.6c0.5,0,1,0,1.5,0c1.3-0.1,1.9,0.5,1.8,1.8
			C84.1,166.5,85.2,167.5,84.8,168.7z"/>
		<path class="st138" d="M81,164.9c-0.4,0.5-0.9,0.3-1.4,0.3c-6.9,0-13.7,0-20.6,0c0-0.1,0-0.2,0-0.3
			C66.3,164.9,73.6,164.9,81,164.9z"/>
		<path class="st77" d="M85.5,112.6c0.6,0,0.9,0.6,1.5,0.4c0.1-0.1,0.4,0.4,0.3,0.7c-0.1,0.1-0.5,0.4-0.6,0.1
			C86.5,113.1,85.7,113.3,85.5,112.6z"/>
		<path class="st139" d="M103.5,95c1.4-1.5,0.8,0.6,1.6,0.6c-0.7,0.4-0.8-0.2-1.1-0.3C103.8,95.4,103.5,95.5,103.5,95z"/>
		<path class="st140" d="M95.8,106.2c0.3-0.2,0.5-0.4,0.8-0.6c0,0.5,0.2,1.1-0.4,1.3C95.9,107,95.9,106.5,95.8,106.2z"/>
		<path class="st140" d="M117.9,165.2c0.1,0.2,0.2,0.4,0.2,0.6c-0.4,0.3-0.7,0.4-1,0c-0.1-0.2-0.4-0.6,0.1-0.7
			C117.4,165.4,117.6,165.3,117.9,165.2z"/>
		<path class="st77" d="M85.9,112.1c0.1,0,0.2-0.1,0.3-0.1c0.2,0.5,0.7-0.1,0.9,0.2c-0.3,0.5-0.8,0.3-1.2,0.4
			C85.9,112.4,85.9,112.3,85.9,112.1z"/>
		<path class="st141" d="M92.1,101.4c0.4-0.2,0.8-0.2,1,0.4C92.7,101.7,92.4,101.5,92.1,101.4z"/>
		<path class="st142" d="M89,103.8c0.1,0.5-0.1,0.8-0.4,0.8c-0.5-0.1-0.1-0.3,0-0.5C88.6,104,88.8,103.9,89,103.8z"/>
		<path class="st143" d="M156.6,116.4c0.2-0.3,0.4-0.4,0.6-0.4c0.2,0,0.2,0.2,0.1,0.3C157.2,116.5,156.9,116.4,156.6,116.4z"/>
		<path class="st141" d="M146,106.1c0.2,0,0.3,0.1,0.3,0.2c-0.1,0.1-0.2,0.3-0.3,0.4c-0.1,0.1-0.3-0.1-0.2-0.2
			C145.8,106.3,146,106.2,146,106.1z"/>
		<path class="st141" d="M123,108.9c0.4-0.2,0.7-0.2,1-0.1C123.7,109.1,123.4,109,123,108.9z"/>
		<path class="st144" d="M139.8,132.2c-0.2,0.1-0.3,0.2-0.5,0.3c-0.2,0-0.2-0.1-0.2-0.2c0-0.1,0.2-0.2,0.3-0.2
			C139.5,132,139.6,132.1,139.8,132.2z"/>
		<path class="st144" d="M128.3,151.5c-0.2-0.3-0.3-0.3-0.3-0.4c0.1-0.2,0.2-0.4,0.5-0.4c0,0,0.1,0.2,0.1,0.2
			C128.4,151.2,128.4,151.3,128.3,151.5z"/>
		<path class="st141" d="M119.1,151c-0.2-0.4-0.2-0.7,0-0.8c0.3-0.1,0.2,0.2,0.1,0.3C119.3,150.6,119.2,150.7,119.1,151z"/>
		<path class="st145" d="M111.8,77.6c-4.4,0-8.8,0-13.2,0c0.1-0.7,0.6-0.5,1.1-0.5c3.7,0,7.4,0,11.1,0
			C111.2,77.1,111.7,76.9,111.8,77.6z"/>
		<path class="st146" d="M96.1,76.5c0.3-0.3,0.7-0.3,1-0.3c4.6,0,9.1,0,13.7,0c0.4,0,0.7-0.1,1,0.3C106.6,76.5,101.3,76.5,96.1,76.5
			z"/>
		<path class="st147" d="M96.4,76c0.3-0.3,0.7-0.3,1-0.3c4.5,0,8.9,0,13.4,0c0.4,0,0.7-0.1,1,0.3C106.7,76,101.5,76,96.4,76z"/>
		<path class="st148" d="M81.5,188.9c-0.2,0-0.4,0-0.6,0c-0.7-1.1-0.4-2.2,0-3.3c0-6.2,0-12.5,0-18.7c0.9,0.2,0.5,1,0.5,1.5
			C81.5,175.2,81.5,182,81.5,188.9z"/>
		<path class="st148" d="M80.4,188.6c-0.1,0.1-0.2,0.2-0.3,0.3c-0.3-0.2-0.5-0.4-0.8-0.6c-0.4-0.7-1-1.2-1.6-1.7
			c-0.2-0.2-0.4-0.3-0.5-0.5c0-0.1,0-0.2,0-0.2c0-0.3,0-0.6,0-0.9c0.1,0,0.2,0,0.3,0c1.2-0.6,0.9,0.7,1.4,1.1c0,0.4,0.4,0.5,0.6,0.8
			C80.7,187.1,80.8,187.3,80.4,188.6z"/>
		<path class="st149" d="M80.4,188.6c0.3-1-0.4-1.4-1.1-1.7c1,0.1,0.9-1.2,1.7-1.4c0,1.1,0,2.2,0,3.3
			C80.7,188.9,80.5,188.8,80.4,188.6z"/>
		<path class="st149" d="M78.8,186.1c-0.8,0-0.4-1.4-1.4-1.1c0.7-0.7,1.5-0.6,2.4-0.4C79.3,185.1,78.4,185.2,78.8,186.1z"/>
		<path class="st89" d="M69.7,176.7c-0.2-0.1-0.3-0.3-0.3-0.6c0.5,0.2,0.1-0.8,0.7-0.5c0.3,0.1,0.4,0.3,0.4,0.6
			C70.4,176.8,70,176.7,69.7,176.7z"/>
		<path class="st89" d="M74.1,181.2c-0.2-0.1-0.3-0.3-0.3-0.6c0.5,0.2,0.1-0.8,0.7-0.5c0.3,0.1,0.4,0.3,0.4,0.6
			C74.8,181.2,74.4,181.1,74.1,181.2z"/>
		<path class="st150" d="M82.6,166.3c0,0.2,0,0.3,0,0.5c0,0.1,0,0.2-0.1,0.3c-0.2,1.3-0.1,2.7-0.1,4c0,5.3,0,10.6,0,15.8
			c0,0.7,0.1,1.4-0.4,2c-0.1,0.1-0.2,0.2-0.3,0.3c0-7.7,0-15.4,0-23.1C82.1,166.1,82.3,166.2,82.6,166.3z"/>
		<path class="st94" d="M81,58.3c-0.2,0.8-0.8,0.5-1.3,0.5c-4,0-7.9,0-11.9,0c0.2-0.8,0.8-0.5,1.3-0.5C73,58.3,77,58.3,81,58.3z"/>
		<path class="st151" d="M82.6,47.9c0.8,0.1,0.3-1.2,1.1-1.1c0.2,0.2,0.4,0.4,0.6,0.6c-0.6,0.7-0.6,1.6-0.6,2.4c0,2.3,0,4.6,0,6.9
			c-0.2,0-0.4,0-0.6,0c-0.2,0.2-0.4,0.1-0.5,0C82.6,53.7,82.6,50.8,82.6,47.9z"/>
		<path class="st152" d="M82.1,60c-4.3,0-8.7,0-13,0c-0.5,0-1.2-0.3-1.3,0.5c-0.4-0.2-0.7-0.4-1.1-0.5c0-0.1,0-0.2,0-0.2
			c0.2,0,0.4,0,0.6-0.1c4.8,0,9.5,0,14.3,0c0.2,0,0.4,0,0.6,0C82.1,59.8,82.1,59.9,82.1,60z"/>
		<path class="st153" d="M82.1,60c0-0.1,0-0.2,0-0.3c0-0.1,0-0.2,0-0.3c1.3-0.1,0.8,1.1,1.1,1.6C82.8,60.7,82.2,60.6,82.1,60z"/>
		<path class="st154" d="M82.6,56.7c0.2,0,0.4,0,0.5,0c-0.2,0.5,0.4,1.4-0.5,1.7c0-0.4,0-0.8-0.3-1.2C82,56.8,82.3,56.7,82.6,56.7z"
			/>
		<path class="st155" d="M66.1,44c0.1-0.5,0.4-0.6,0.8-0.5c1.3,0.2,1.5-0.5,1.4-1.6c-0.1-3.4,0-6.9,0-10.3c0-0.5-0.3-1.2,0.5-1.3
			c0,4.6,0,9.2,0,13.8C67.9,44,67,44,66.1,44z"/>
		<path class="st156" d="M66.4,44.6c0,4.9,0,9.9,0,14.8c-0.3-0.2-0.2-0.6-0.2-0.9c0-4.3,0-8.6,0-12.9C66.1,45.2,66,44.8,66.4,44.6z"
			/>
		<path class="st157" d="M82.6,166.8c0.2,0.2,0.4,0.4,0.6,0.6c0.3,0.5,0.3,1.1,0.3,1.6c0,6.1,0,12.3,0,18.4c0,0.5,0.1,1-0.3,1.5
			c-0.2,0.1-0.4,0.2-0.5,0.3c0-0.1,0-0.2,0-0.3c-0.4-0.4-0.3-1-0.3-1.5c0-6.4,0-12.7,0-19.1C82.3,167.8,82.3,167.3,82.6,166.8
			L82.6,166.8z"/>
		<path class="st158" d="M83.2,188.9c0-7.2,0-14.3,0-21.5c0.2,0.2,0.4,0.4,0.6,0.5c0,7,0,14,0,21C83.5,188.9,83.3,188.9,83.2,188.9z
			"/>
		<path class="st159" d="M82.6,166.8c0,7.3,0,14.7,0,22c-0.2,0-0.4,0-0.5,0c0-6.9,0-13.8,0-20.7C82.1,167.7,81.8,167,82.6,166.8z"/>
		<path class="st160" d="M67.7,60.5c4,0,7.9,0,11.9,0c0.5,0,1.2-0.3,1.3,0.5c-4,0-7.9,0-11.9,0C68.6,61.1,67.9,61.4,67.7,60.5z"/>
		<path class="st110" d="M54.5,30c4.4,0,8.8,0,13.2,0c0.1,0.4-0.3,0.3-0.4,0.3c-4,0-7.9,0-11.9,0C55.1,30.2,54.8,30.3,54.5,30z"/>
		<path class="st161" d="M66.1,60c0,0.7-0.6,0.8-1.1,1.1c-0.2,0.1-0.5-0.1-0.6-0.4c0-0.3,0.1-0.6,0.4-0.6C65.3,60,65.7,60,66.1,60
			C66.1,60,66.1,60,66.1,60z"/>
		<path class="st58" d="M95,73.2c0.1,0.1,0.2,0.2,0.3,0.3c0.1,0.9-0.5,0.8-1.1,0.8C94.2,73.7,94.1,73.1,95,73.2z"/>
		<path class="st162" d="M84.8,56.7c0.2,0,0.4,0,0.6,0c0,0.9,0,1.7,0,2.6c-0.7-0.4-0.5-1-0.6-1.5C84.5,57.4,84.5,57,84.8,56.7
			L84.8,56.7z"/>
		<path class="st93" d="M84.3,59.4c-1-0.3-0.4-1.1-0.6-1.7c0.1-0.1,0.3-0.2,0.4-0.1c0,0,0.1,0.1,0.1,0.1
			C84.3,58.3,84.3,58.9,84.3,59.4z"/>
		<path class="st93" d="M84.8,56.7c0,0.4,0,0.7,0,1.1c-0.2,0-0.4,0-0.5,0c0,0,0,0,0,0c-0.3-0.4-0.3-0.7,0-1.1
			C84.4,56.7,84.6,56.7,84.8,56.7z"/>
		<path class="st151" d="M84.3,56.7c0,0.4,0,0.7,0,1.1c-0.2,0-0.4,0-0.6,0c0-0.4,0-0.7,0-1.1C83.9,56.7,84.1,56.7,84.3,56.7z"/>
		<path class="st163" d="M157.5,44.6c0,4.9,0,9.7,0,14.6c0.1,0.2,0.4,0.1,0.5,0.3c0,0.1,0,0.2,0,0.2c-0.3,0-0.6,0-0.8-0.3
			c-0.3-0.9-0.1-1.9-0.1-2.8c0-2.9,0-5.8,0-8.7c0.1-1.1-0.2-2.3,0.1-3.4C157.3,44.6,157.4,44.6,157.5,44.6z"/>
		<path class="st164" d="M157.2,56.7c0,0.9,0,1.8,0,2.7c-0.1,0-0.2,0-0.3,0c0-0.9,0-1.8,0-2.7C157.1,56.6,157.1,56.6,157.2,56.7z"/>
		<path class="st165" d="M157.2,56.7c-0.1,0-0.2,0-0.2,0c0-2.9,0-5.9,0-8.8c0.1-0.1,0.2-0.1,0.2,0C157.2,50.8,157.2,53.7,157.2,56.7
			z"/>
		<path class="st166" d="M157.2,47.9c-0.1,0-0.2,0-0.2,0c0-0.5,0-1.1,0-1.6c0-0.5,0-1.1,0-1.6c0.1,0,0.2,0,0.3,0
			C157.2,45.7,157.2,46.8,157.2,47.9z"/>
		<path class="st167" d="M158.1,57.8c0-0.4,0-0.7,0-1.1c0.8-0.1,0.5-0.7,0.5-1.2c0-2.1,0-4.1,0-6.2c0-0.5-0.4-1.4,0.6-1.4
			c0.8,0,0.5,0.8,0.5,1.3c0,1.9-0.1,3.8,0,5.7C159.8,56.4,159.2,57.2,158.1,57.8z"/>
		<path class="st168" d="M171.3,56.7c-0.1-2.4,0.6-4.9,0-7.3c-0.4-1.5,0.2-2.8,0-4.3c1.1,0.6,0.9,2.1,0.8,2.6
			c-0.4,1.5-0.1,2.9-0.2,4.3c-0.1,1.7,0,3.5,0,5.2c-0.2,0-0.4,0-0.6,0C171.1,57,171.1,56.9,171.3,56.7z"/>
		<path class="st169" d="M158.1,56.7c-0.4-0.4-0.3-0.8-0.3-1.3c0-2.1,0-4.2,0-6.3c0-0.4-0.1-0.9,0.3-1.3
			C158.1,50.8,158.1,53.7,158.1,56.7z"/>
		<path class="st168" d="M169.1,58.9c-1.5,0-2.9,0-4.4,0c0-0.4,0.3-0.5,0.6-0.5c1,0,2.1,0,3.1,0C168.8,58.3,169,58.5,169.1,58.9z"/>
		<path class="st170" d="M171.3,56.7c0,0.2,0,0.4,0,0.5c-0.8,0.5-1.6,1.1-1.6-0.5C170.2,56.7,170.7,56.7,171.3,56.7z"/>
		<path class="st168" d="M171.8,57.2c0.3,0,0.5,0.1,0.5,0.5c0,0.4-0.1,0.6-0.5,0.6C171.8,58,171.8,57.6,171.8,57.2z"/>
		<path class="st171" d="M158,59.5c-0.2,0-0.4,0-0.5-0.3c0.5,0,1.1,0,1.6,0c3.2,0,6.4,0,9.6,0c0,0.1,0,0.2,0,0.3
			C165.2,59.5,161.6,59.5,158,59.5z"/>
		<path class="st172" d="M173.5,43.5c-0.7-0.1-0.5-0.6-0.5-1.1c0-3.7,0-7.4,0-11.1c0-0.4-0.1-1,0.5-1.1
			C173.5,34.6,173.5,39.1,173.5,43.5z"/>
	</g>
	<rect x="100.5" y="44" class="st173" width="54.5" height="18.3"/>
	<text transform="matrix(1 0 0 1 100.5382 60.9519)" class="st174 st175 st176">May</text>
	<polygon class="st174" points="57.1,165.5 81.7,165.5 81.7,190 80.7,189.9 57.2,166.6 	"/>
</g>
</svg>
