<?xml version="1.0" encoding="utf-8"?>
<!-- Generator: Adobe Illustrator 19.0.0, SVG Export Plug-In . SVG Version: 6.00 Build 0)  -->
<svg version="1.1" xmlns="http://www.w3.org/2000/svg" xmlns:xlink="http://www.w3.org/1999/xlink" x="0px" y="0px"
	 viewBox="0 0 241.3 226" style="enable-background:new 0 0 241.3 226;" xml:space="preserve">
<style type="text/css">
	.st0{fill:#353F41;}
	.st1{fill:#353E40;}
	.st2{fill:white;}
	.st3{fill:rgba(8,45,87,1);}
</style>
<g id="Layer_1">
</g>
<g id="Layer_2">
	<g>
		<path class="st3" d="M69.5,147.7c-11.6-2.1-20.6-8.5-27.1-18c-3.5-5.2-4.5-11.3-2.8-17.5c0.9-3.2,0.7-6.1,0-9.3c-2.4-11.8,3.2-22.8,14-28.2
			c2.6-1.3,4.2-2.8,5.5-5.4c4.7-9.5,12.7-14.3,23.2-15.1c1.2,0.4,2.5,0.4,3.7,0c1.5,0.1,2.4-0.9,3.4-1.9
			c10.5-10.2,26.2-11.1,37.8-2.2c1.5,1.2,2.8,1.3,4.4,0.9c20.5-5.8,43,6.4,48.4,25.6c0.3,1.2,1.1,2.1,2.1,2.9
			c12.3,9.9,14.3,23.3,5.3,36.2c-0.8,1.1-1,2.1-0.8,3.5c1.8,11.1-2.7,19.4-11.5,25.7c-3.9,2.8-6.1,7.6-10.7,9.7
			c-1.2,0.5-0.2,1.8,0.2,2.6c1.8,5.2,3.5,10.3,5.4,15.4c0.6,1.7,0.4,2.7-1.1,3.7c-2.9,1.9-5.8,3.9-8.5,6.1c-1.9,1.5-2.8,1.5-4.1-0.8
			c-4.7-8.3-10.3-15.9-16.8-22.9c-0.9-1-1.8-1.9-3.3-2.2c-4.8-0.9-9.4-2.5-13.4-5.3c-1.1-0.8-2-0.4-3.1,0
			c-11.7,4.7-22.4,3.4-31.9-5.1c-1.2-1-2-1-3.3-0.5c-2.4,1-4.8,1.9-7.5,1.9C74.5,147.3,72,147.3,69.5,147.7z"/>
		<path class="st0" d="M69.5,147.7c2.5-1,5-1,7.4,0C74.5,147.7,72,147.7,69.5,147.7z"/>
		<path class="st1" d="M86,54.2c-1.2,0.9-2.5,0.9-3.7,0C83.5,54.2,84.7,54.2,86,54.2z"/>
		<path class="st2" d="M152,98.4c-1.7-0.2-3.5-0.5-5.2-0.6c-6.8-0.5-6.6-0.5-7,6.2c-0.1,2.3,0.7,2.5,2.6,2.7
			c6.6,0.9,13.2,0,19.8,1.3c6,1.2,10.5,4.6,14,9.3c2.1,2.9,1.6,6.7,0.9,10.1c-0.6,2.7-1.9,5.3-4,7c-3.9,3.2-8.1,5.9-11,10.2
			c-1.6,2.4-5,2.8-7.8,3.1c-2.7,0.3-2.7,1.3-1.9,3.4c1.7,4.5,3.2,9.1,4.5,13.7c-3.9-4.6-7.9-9-11.5-13.7c-4.1-5.3-11.1-2.8-15.8-7
			c5-3.8,9.8-7.7,14.9-11.3c3.1-2.2,6.6-2.9,10.2-1.2c2.3,1.1,3.3,0.3,3.9-2c1.6-6,1.7-6.1-4.4-7.5c-7.1-1.7-12.9,1.5-18.3,5.5
			c-5.8,4.3-11.3,9-17.2,13.3c-7.5,5.5-17.6,4.9-24-1.2c-0.8-0.8-2-1.4-2-2.6c0.1-5.5-0.6-11,0.4-16.4c0.4-2.5,2-4.2,4.3-5.2
			c2-0.9,2.6-1.9,1.2-4.2c-3.8-6.1-3.9-6.2-9.6-1.7c-0.6,0.5-1.3,0.9-1.6,1.5c-1.9,4.3-4.2,3.6-7.4,1.2c-3.5-2.6-7.4-4.5-11.1-6.9
			c-1.5-1-2.3-1.2-3.5,0.7c-3.8,6-3.9,5.9,2.1,9.6c2.9,1.8,5.7,3.5,8.6,5.3c5,3.2,7.2,8.5,6.2,14.2c-0.3,1.5-1.3,1.7-2.3,2.1
			c-6.5,2.6-12.7,1.7-18.4-2.3c-2-1.4-4-2.9-6.1-4.3c-7-4.9-9.1-13.1-5.3-20.7c0.7-1.4,1.3-2.4,0.4-4.1c-6.2-10.6,1.1-22,11.1-24.1
			c2.7-0.6,4-1.8,4.6-4.6c2.4-10,11.6-15.4,22.6-13.1c2.5,0.5,3.4-0.1,4.7-2c5.5-8.3,16-10.9,24.7-6.5c1.7,0.9,2.7,1.4,0.7,3.3
			c-4.9,4.4-9.8,8.3-17,6c-1.2-0.4-1.9,0.1-2.1,1.3c-0.4,2.2-0.9,4.4-1.1,6.6c-0.2,1.7,1.3,1.5,2.4,1.6c3,0.1,4.8,0.5,3.7,4.5
			c-1.2,4.4,0.6,8.9,1.3,13.3c0.2,1.4,1.3,1,2,0.9c1.9-0.2,3.7-0.5,5.5-0.8c1.3-0.2,1.9-0.7,1.5-2.3c-0.5-2.4-0.8-4.9-1-7.4
			c-0.4-4.2,1-7.8,4.2-10.7c1.9-1.7,3.9-3.2,5.5-5.1c7.1-8.4,16.4-8.9,26-6.6c11.4,2.8,19,9.9,21.5,21.8c0.4,2,1.7,3,3.4,4
			c8.6,5,10.9,13.9,6.1,22.5c-8-6.1-13.5-13.5-13.3-24c0.1-4.5-2.8-3.5-5.2-3.3c-2.5,0.2-4.8,0-4,4.1c0.8,4.2,1,8.6,2.6,12.9
			c-1.7,0.1-3.2,0.2-4.7,0.3C155,98.8,153.5,98.9,152,98.4z"/>
		<path class="st1" d="M152,98.4c1.5,0,3,0,4.5,0C155,99.4,153.5,99.5,152,98.4z"/>
	</g>
</g>
</svg>
