<?xml version="1.0" encoding="utf-8"?>
<!-- Generator: Adobe Illustrator 19.0.0, SVG Export Plug-In . SVG Version: 6.00 Build 0)  -->
<svg version="1.1" xmlns="http://www.w3.org/2000/svg" xmlns:xlink="http://www.w3.org/1999/xlink" x="0px" y="0px"
	 viewBox="0 0 241.3 226" style="enable-background:new 0 0 241.3 226;" xml:space="preserve">
<style type="text/css">
	.st0{fill:#226FA6;}
	.st1{fill:#2580C3;}
	.st2{fill:#364F5E;}
	.st3{fill:#EBAE43;}
	.st4{fill:#D7BCAA;}
	.st5{fill:#E7CFBB;}
	.st6{fill:#6D5845;}
	.st7{fill:#F1D6BB;}
	.st8{fill:#5E4C3D;}
	.st9{fill:#E1C2A9;}
	.st10{fill:#2C424F;}
	.st11{fill:#F4B460;}
</style>
<g id="Layer_1">
</g>
<g id="Layer_2">
	<g>
		<path class="st0" d="M116.8,119.9c6.5,0.1,13.1-0.7,19.5,0.9c14.8,3.8,25.1,17.2,25.1,32.4c0,8.5,0,17,0,25.5
			c0,1.1-0.3,1.7-1.3,2.2c-6.1,3-12.5,4.6-19.1,5.9c-7.8,1.5-15.7,2-23.7,1.9c-0.2,0-0.4-0.1-0.6-0.1c-0.5-0.7-0.5-1.5-0.5-2.3
			c0-21.4,0-42.8,0-64.2C116.3,121.3,116.2,120.5,116.8,119.9z"/>
		<path class="st1" d="M116.8,119.9c0,22.9,0,45.8,0,68.7c-14.6-0.2-28.7-3-42.6-7.2c-1.5-0.5-1.9-1.1-1.9-2.6
			c0.1-9.1-0.1-18.2,0.1-27.3c0.3-15.4,13-29.4,28.3-31.3C106.1,119.4,111.4,119.9,116.8,119.9z"/>
		<path class="st2" d="M71,134.2c-4.3,7.8-5.2,16.3-4.9,25c0.1,2.7,0.2,2.3-2.2,2.1c-12.5-0.9-24.6-3.4-36.5-7.2
			c-0.8-0.2-1-0.6-1-1.4c0.1-9.9-0.4-19.9,0.2-29.8c0.9-14.3,13-27.3,27.2-29.6c2.4-0.4,4.8-0.6,7.3-0.6c6.9,0,13.8,0,20.7,0
			c0.8,0,1.7-0.1,2.5,0.3c-0.6,0.6-1.4,0.5-2.1,0.5c-2.9,0-5.9,0-8.8,0c-2.2,0-2.3,0.1-2.3,2.2c0,11.5,0,23,0,34.5
			C71.3,131.6,71.3,132.9,71,134.2z"/>
		<path class="st3" d="M174,93c7.9,0.5,14.6,3.6,20.2,9c7,6.7,10.4,15,10.4,24.7c0,8.4,0,16.7,0,25.1c0,1.1-0.2,1.7-1.3,2.2
			c-6.5,3.1-13.4,4.8-20.4,6.1c-4.5,0.8-9.1,1.2-13.6,1.5c-1.3,0.1-1.8-0.1-1.8-1.6c0-4.9,0.3-9.9-0.8-14.8
			c-1.2-5.6-3.5-10.8-6.9-15.4c-0.1-0.2-0.2-0.4-0.3-0.6c-0.2-0.5-0.3-1-0.3-1.5c0.3-7.8,0.2-15.5,0.1-23.3c0-3.1-0.3-6.3-0.2-9.4
			c0-2,0.2-2.1,2.2-2.1c3.7,0,7.4,0,11.2,0C173,92.9,173.5,92.7,174,93z"/>
		<path class="st4" d="M162.8,39c6.9,0.5,12.6,3.6,17.1,8.8c4.2,4.7,6.4,10.4,6.4,16.6c0.1,8.2-3,15.2-9.4,20.6
			c-4.9,4.1-10.6,6.2-17,6.1c-0.6-0.6-0.5-1.4-0.5-2.1c0-15.9,0-31.8,0-47.7C159.4,38.7,159.7,38.5,162.8,39z"/>
		<path class="st5" d="M117.8,65.8c9.7,0.3,17.1,4.7,21.7,13c5.8,10.3,4.8,20.5-2.5,29.7c-5,6.3-11.9,9.5-20.2,9.4
			c-0.4-0.5-0.5-1-0.5-1.6c0-16.2,0-32.5,0-48.7c0-0.4,0-0.7,0.1-1.1C116.6,65.8,117.1,65.5,117.8,65.8z"/>
		<path class="st6" d="M71.1,91c-12.3,0.4-23.9-9.3-25.8-21.7C43,55,52.1,41.9,66.3,39.2c2.4-0.5,4.9-0.8,7.4-0.2
			c-2,0.6-2.2,2.1-2.2,3.9c0.1,15.1,0,30.3,0,45.4C71.6,89.2,71.8,90.2,71.1,91z"/>
		<path class="st7" d="M117.8,65.8c-0.5,0-1,0.1-1,0.8c0,0.4,0,0.7,0,1.1c0,16.7,0,33.5,0,50.2c-12.4,0.5-23.5-9.4-25.6-21
			c-1.6-9,0.8-16.9,7-23.4c4.5-4.7,10.2-7.4,16.8-7.7C115.9,65.8,116.8,65.1,117.8,65.8z"/>
		<path class="st8" d="M71.1,91c0-16.4,0-32.8,0-49.3c0-2.7,0-2.7,2.6-2.8c10.1,0.4,19.9,8.7,22.6,19.1c0.2,0.8,0.4,1.5,0.5,2.3
			c0.7,3.3,0.5,6.1-2.6,8.7c-5.1,4.3-7.8,10.2-9.1,16.8c-0.1,0.7-0.3,1.3-1,1.7C80.1,89.8,75.8,91.1,71.1,91z"/>
		<path class="st9" d="M162.8,39c-2.9,0-2.9,0-2.9,2.9c0,16.4,0,32.8,0,49.2c-3.3,0.1-6.4-0.7-9.5-1.8c-1.1-0.4-1.5-1.1-1.7-2.2
			c-0.5-4.1-1.9-7.8-4-11.3c-2.4-4.2-5.7-7.7-9.7-10.4c-0.8-0.6-1.1-1.1-1.1-2.1c0.3-5.6,2.3-10.6,5.8-14.9
			c5.6-6.7,12.9-9.8,21.6-9.6C161.9,38.7,162.4,38.6,162.8,39z"/>
		<path class="st10" d="M71,134.2c-0.4-0.5-0.2-1-0.2-1.5c0-12.6,0-25.2,0-37.8c0-1.5,0.5-1.9,1.9-1.8c3.9,0.1,7.9,0,11.8,0
			c0.3,1.8,0.5,3.6,0.8,5.4c1.2,5.9,3.9,11.1,8,15.5c0.3,0.3,0.6,0.6,0.8,1c0.1,0.1,0.1,0.2,0.2,0.4c-1.9,0.7-3.8,1.3-5.5,2.2
			C81.1,121.2,75.3,126.8,71,134.2z"/>
		<path class="st11" d="M174,93c-4.3,0-8.5,0.1-12.8,0c-1.3,0-1.7,0.4-1.7,1.7c0.3,10.2,0.4,20.5,0.4,30.7c0,1.3-0.3,2.5-0.4,3.8
			c-3.5-4.1-7.4-7.8-12.1-10.4c-2.6-1.4-5.2-2.6-8.1-3.5c0.9-1.1,1.9-2.1,2.7-3.1c4.2-5.3,6.6-11.3,7.1-18.1c0-0.7,0-1.3,1.1-1.3
			c7.5,0,15.1,0,22.6,0.1C173.2,92.8,173.6,92.9,174,93z"/>
	</g>
</g>
</svg>
